<?xml version="1.0" encoding="UTF-8"?>
<svg version="1.1" xmlns="http://www.w3.org/2000/svg" width="1280" height="904">
<path d="M0 0 C0.99 1.485 0.99 1.485 2 3 C1.3203125 5.26171875 1.3203125 5.26171875 0.125 7.6875 C-0.26429688 8.49574219 -0.65359375 9.30398438 -1.0546875 10.13671875 C-1.52261719 11.05904297 -1.52261719 11.05904297 -2 12 C-1.236875 12.28875 -0.47375 12.5775 0.3125 12.875 C3 14 3 14 6 16 C5.01 18.97 4.02 21.94 3 25 C5.31 26.65 7.62 28.3 10 30 C9.30535753 35.10095665 7.23234461 39.5739488 5.1875 44.25 C4.84396484 45.07757813 4.50042969 45.90515625 4.14648438 46.7578125 C3.80294922 47.54414063 3.45941406 48.33046875 3.10546875 49.140625 C2.79762451 49.85766602 2.48978027 50.57470703 2.17260742 51.31347656 C1 53 1 53 -0.92456055 53.87011719 C-4.07882137 54.06751358 -5.89003988 52.21861949 -8.42578125 50.53125 C-28.84402225 38.38564989 -57.30754689 34.30360143 -80.375 39.1875 C-90.48148518 42.09999307 -97.87508482 46.23296455 -104 55 C-105.27436579 57.51764949 -106.00974776 59.25777798 -105.97265625 62.08203125 C-99.78698352 74.27948229 -71.11275815 79.60222774 -59.25488281 83.66137695 C-8.32658958 101.14825093 -8.32658958 101.14825093 3 124 C13.42933041 149.92323603 22.51543173 177.67556873 11.85546875 204.92578125 C4.72537943 220.76814109 -8.38127519 231.15169335 -24.125 237.8125 C-49.68844065 246.61904415 -77.90358382 246.6068938 -104 240 C-104.73202637 239.81808105 -105.46405273 239.63616211 -106.21826172 239.44873047 C-116.88106365 236.70266019 -126.31678005 232.13146246 -136 227 C-137.99728755 225.9945934 -139.99631457 224.99259494 -142 224 C-141.40049704 220.31733897 -140.75241109 216.65456815 -140 213 C-141.98 211.68 -143.96 210.36 -146 209 C-145.46274105 205.62294375 -144.88935377 202.303314 -144 199 C-146.31 197.68 -148.62 196.36 -151 195 C-150.08416944 189.60154528 -147.91237823 185.15569258 -145.5625 180.25 C-145.15451172 179.37472656 -144.74652344 178.49945313 -144.32617188 177.59765625 C-143.73352539 176.35048828 -143.73352539 176.35048828 -143.12890625 175.078125 C-142.58858765 173.93972168 -142.58858765 173.93972168 -142.03735352 172.77832031 C-141 171 -141 171 -139 170 C-136.67702213 171.2765638 -134.44131945 172.61007184 -132.1875 174 C-125.76904885 177.7811888 -119.3189261 180.59416727 -112.25 182.9375 C-111.41235107 183.21916016 -110.57470215 183.50082031 -109.71166992 183.79101562 C-88.12868319 190.66396284 -61.36761197 191.63668777 -40.875 181.0625 C-34.01598128 176.94503517 -28.27362279 172.53846204 -25 165 C-24.60624153 162.6761003 -24.26245771 160.34236451 -24 158 C-38.3649612 148.92231023 -53.88971929 143.71976849 -69.90820312 138.28417969 C-87.00169691 132.47592534 -103.40337482 126.85875357 -118 116 C-118.59941406 115.58363281 -119.19882812 115.16726563 -119.81640625 114.73828125 C-128.01362608 108.63852237 -132.0342402 99.4376509 -135 90 C-135.47088127 88.58925005 -135.94372209 87.17915343 -136.41796875 85.76953125 C-143.98903208 63.07285138 -151.27403614 38.9506416 -141 15.75 C-132.11324717 -0.07535864 -116.64433949 -10.05113148 -99.53125 -15.00390625 C-67.33444108 -22.78981682 -28.26450347 -17.83144616 0 0 Z " fill="#FCFCFC" transform="translate(722,320)"/>
<path d="M0 0 C31.02 0 62.04 0 94 0 C94 1.98 94 3.96 94 6 C96.31 6 98.62 6 101 6 C101 8.31 101 10.62 101 13 C101.99 13 102.98 13 104 13 C104 8.71 104 4.42 104 0 C111.22460345 -0.06821604 118.44902613 -0.12306685 125.67388535 -0.15543652 C129.02999244 -0.17098523 132.38568932 -0.19368193 135.74169922 -0.22631836 C139.61431901 -0.26301543 143.48661207 -0.27979832 147.359375 -0.29296875 C148.544245 -0.30845261 149.72911499 -0.32393646 150.94989014 -0.33988953 C167.17722481 -0.34311418 177.54517865 4.230272 188.99414062 15.48632812 C189.75919922 16.25396484 190.52425781 17.02160156 191.3125 17.8125 C192.09689453 18.56853516 192.88128906 19.32457031 193.68945312 20.10351562 C201.67776747 28.06468192 205.11143936 35.87849441 205.25 47.125 C205.23259459 57.41035426 203.20849854 65.43351733 196 73 C190.67300538 77.8637777 184.44269612 82 177 82 C184.59 93.55 192.18 105.1 200 117 C202.13253875 114.86746125 202.72919379 113.50101573 203.79663086 110.71923828 C204.31437325 109.38189384 204.31437325 109.38189384 204.84257507 108.01753235 C205.21292374 107.0449498 205.5832724 106.07236725 205.96484375 105.0703125 C206.54834343 103.55723763 206.54834343 103.55723763 207.14363098 102.01359558 C208.41300451 98.71920335 209.67514383 95.42208673 210.9375 92.125 C211.81155224 89.85417121 212.68622833 87.58358244 213.56152344 85.31323242 C215.28022018 80.85483276 216.99702158 76.39571162 218.71240234 71.93603516 C221.36326543 65.05029134 224.04493869 58.17715087 226.75 51.3125 C227.15379883 50.28688965 227.55759766 49.2612793 227.97363281 48.20458984 C229.05459493 45.46161677 230.13672199 42.71910718 231.21954346 39.97686768 C232.11661755 37.70461205 233.01316798 35.43215016 233.90966797 33.15966797 C238.27064237 22.1054696 242.63421732 11.0523002 247 0 C250.12482562 -0.08687496 253.24934246 -0.14034568 256.375 -0.1875 C257.26445312 -0.21263672 258.15390625 -0.23777344 259.0703125 -0.26367188 C259.92109375 -0.27333984 260.771875 -0.28300781 261.6484375 -0.29296875 C262.82672119 -0.31653442 262.82672119 -0.31653442 264.02880859 -0.34057617 C264.67930176 -0.22818604 265.32979492 -0.1157959 266 0 C268 3 268 3 268 6 C269.65 6 271.3 6 273 6 C273.66 8.31 274.32 10.62 275 13 C276.16766403 13.11212578 276.16766403 13.11212578 277.35891724 13.22651672 C280 14 280 14 281.2975769 15.87663269 C281.77265182 17.11368706 281.77265182 17.11368706 282.25732422 18.37573242 C282.81561165 19.78537514 282.81561165 19.78537514 283.38517761 21.22349548 C283.77111588 22.25704666 284.15705414 23.29059784 284.5546875 24.35546875 C285.18247856 25.9639846 285.18247856 25.9639846 285.82295227 27.60499573 C287.19221953 31.12561429 288.53343259 34.6562441 289.875 38.1875 C290.81483335 40.61762858 291.75665855 43.04698773 292.70043945 45.47558594 C294.59404535 50.35499309 296.47778382 55.23801895 298.35302734 60.12451172 C301.60174171 68.58040809 304.92705296 77.00524091 308.26663208 85.42556763 C309.17900736 87.72856308 310.08805057 90.03284369 310.99584961 92.33764648 C313.68806493 99.17186099 316.39392372 105.99998011 319.140625 112.8125 C319.61733643 113.99618164 320.09404785 115.17986328 320.58520508 116.39941406 C321.45678637 118.55893414 322.33139411 120.71723643 323.2097168 122.87402344 C323.58265869 123.79731445 323.95560059 124.72060547 324.33984375 125.671875 C324.82505493 126.86441895 324.82505493 126.86441895 325.32006836 128.08105469 C326 130 326 130 326 132 C320.39 132 314.78 132 309 132 C308.34 130.35 307.68 128.7 307 127 C306.34 126.855625 305.68 126.71125 305 126.5625 C304.34 126.376875 303.68 126.19125 303 126 C301.75 122.9375 301.75 122.9375 301 120 C300.22116455 119.93176025 299.4423291 119.86352051 298.63989258 119.79321289 C296 119 296 119 294.69799805 116.95874023 C294.23453979 115.64691772 294.23453979 115.64691772 293.76171875 114.30859375 C293.44936279 113.45837646 293.13700684 112.60815918 292.81518555 111.73217773 C292.44304932 110.64493408 292.07091309 109.55769043 291.6875 108.4375 C290.470625 104.993125 289.25375 101.54875 288 98 C273.48 98 258.96 98 244 98 C239.71 109.22 235.42 120.44 231 132 C225.39 132 219.78 132 214 132 C214.33 130.35 214.66 128.7 215 127 C212.69 126.67 210.38 126.34 208 126 C208.33 124.02 208.66 122.04 209 120 C206.03 120.495 206.03 120.495 203 121 C203.433125 121.62648438 203.86625 122.25296875 204.3125 122.8984375 C204.869375 123.71570313 205.42625 124.53296875 206 125.375 C206.556875 126.18710937 207.11375 126.99921875 207.6875 127.8359375 C209 130 209 130 209 132 C206.24835568 132.13517903 203.50335479 132.23415251 200.75 132.3125 C199.58404297 132.3753418 199.58404297 132.3753418 198.39453125 132.43945312 C196.16035278 132.48719198 194.18778478 132.46261283 192 132 C189.60546875 129.60546875 189.60546875 129.60546875 188 127 C186.34997172 125.64613064 184.6825613 124.31321858 183 123 C179.49828239 119.69867442 176.68612639 116.35018233 174.00390625 112.359375 C172.91819336 110.75255859 172.91819336 110.75255859 171.81054688 109.11328125 C171.0610816 107.99226526 170.31173322 106.8711711 169.5625 105.75 C168.82451172 104.65558594 168.08652344 103.56117188 167.32617188 102.43359375 C163.19632992 96.30307281 159.10026075 90.15039113 155 84 C144.11 83.505 144.11 83.505 133 83 C133 99.17 133 115.34 133 132 C127.72 132 122.44 132 117 132 C117 130.02 117 128.04 117 126 C115.02 126 113.04 126 111 126 C110.67 124.02 110.34 122.04 110 120 C109.195625 120.020625 108.39125 120.04125 107.5625 120.0625 C105 120 105 120 104 119 C103.90479094 116.16959328 103.87446369 113.36365007 103.88647461 110.53295898 C103.88632858 109.64523804 103.88618256 108.75751709 103.8860321 107.84289551 C103.88673157 104.89393716 103.89452552 101.94504113 103.90234375 98.99609375 C103.90420781 96.95728083 103.90563177 94.91846746 103.90663147 92.87965393 C103.91045759 87.50215426 103.92028868 82.12468142 103.93133545 76.74719238 C103.94154755 71.26440799 103.94612866 65.78161928 103.95117188 60.29882812 C103.96191086 49.53253838 103.97950842 38.76627561 104 28 C92.12 28 80.24 28 68 28 C68 62.32 68 96.64 68 132 C62.72 132 57.44 132 52 132 C52 130.02 52 128.04 52 126 C49.69 126 47.38 126 45 126 C45 124.02 45 122.04 45 120 C44.195625 120.020625 43.39125 120.04125 42.5625 120.0625 C40 120 40 120 39 119 C38.90479094 116.16959328 38.87446369 113.36365007 38.88647461 110.53295898 C38.88632858 109.64523804 38.88618256 108.75751709 38.8860321 107.84289551 C38.88673157 104.89393716 38.89452552 101.94504113 38.90234375 98.99609375 C38.90420781 96.95728083 38.90563177 94.91846746 38.90663147 92.87965393 C38.91045759 87.50215426 38.92028868 82.12468142 38.93133545 76.74719238 C38.94154755 71.26440799 38.94612866 65.78161928 38.95117188 60.29882812 C38.96191086 49.53253838 38.97950842 38.76627561 39 28 C30.42 28 21.84 28 13 28 C13 25.69 13 23.38 13 21 C10.69 21 8.38 21 6 21 C6 19.02 6 17.04 6 15 C4.02 15 2.04 15 0 15 C0 10.05 0 5.1 0 0 Z M133 28 C133 36.91 133 45.82 133 55 C139.373125 55.12375 139.373125 55.12375 145.875 55.25 C147.1935498 55.28641602 148.51209961 55.32283203 149.87060547 55.36035156 C158.3658969 55.4395677 165.97821105 54.61961006 172.5 48.75 C175.60442516 43.05855387 176.38816111 37.46935176 176 31 C175.505 30.01 175.505 30.01 175 29 C171.0523573 27.6841191 167.28910644 27.87699727 163.17578125 27.90234375 C161.88367989 27.90446617 161.88367989 27.90446617 160.56547546 27.90663147 C157.81444831 27.9122286 155.06350256 27.92478054 152.3125 27.9375 C150.4472668 27.94251537 148.58203233 27.94707821 146.71679688 27.95117188 C142.14447466 27.96134616 137.57232845 27.98092213 133 28 Z M265 40 C261.2334612 49.96644287 257.55699006 59.95673394 254 70 C261.92 70 269.84 70 278 70 C276.4036023 65.74693297 274.79827897 61.49761743 273.1875 57.25 C272.73568359 56.0434375 272.28386719 54.836875 271.81835938 53.59375 C271.37685547 52.43359375 270.93535156 51.2734375 270.48046875 50.078125 C270.07723389 49.00981445 269.67399902 47.94150391 269.25854492 46.84082031 C268.09192088 44.2074862 266.83176878 42.20650165 265 40 Z " fill="#FAFAFA" transform="translate(72,309)"/>
<path d="M0 0 C3.12482562 -0.08687496 6.24934246 -0.14034568 9.375 -0.1875 C10.26445312 -0.21263672 11.15390625 -0.23777344 12.0703125 -0.26367188 C12.92109375 -0.27333984 13.771875 -0.28300781 14.6484375 -0.29296875 C15.82672119 -0.31653442 15.82672119 -0.31653442 17.02880859 -0.34057617 C17.67930176 -0.22818604 18.32979492 -0.1157959 19 0 C21 3 21 3 21 6 C22.65 6 24.3 6 26 6 C26.99 9.465 26.99 9.465 28 13 C28.77844269 13.07475052 29.55688538 13.14950104 30.35891724 13.22651672 C33 14 33 14 34.2975769 15.87663269 C34.77265182 17.11368706 34.77265182 17.11368706 35.25732422 18.37573242 C35.62951584 19.31549423 36.00170746 20.25525604 36.38517761 21.22349548 C36.77111588 22.25704666 37.15705414 23.29059784 37.5546875 24.35546875 C37.97321487 25.42781265 38.39174225 26.50015656 38.82295227 27.60499573 C40.19221953 31.12561429 41.53343259 34.6562441 42.875 38.1875 C43.81483335 40.61762858 44.75665855 43.04698773 45.70043945 45.47558594 C47.59404535 50.35499309 49.47778382 55.23801895 51.35302734 60.12451172 C54.60174171 68.58040809 57.92705296 77.00524091 61.26663208 85.42556763 C62.17900736 87.72856308 63.08805057 90.03284369 63.99584961 92.33764648 C66.68806493 99.17186099 69.39392372 105.99998011 72.140625 112.8125 C72.85569214 114.58802246 72.85569214 114.58802246 73.58520508 116.39941406 C74.45678637 118.55893414 75.33139411 120.71723643 76.2097168 122.87402344 C76.58265869 123.79731445 76.95560059 124.72060547 77.33984375 125.671875 C77.66331787 126.4669043 77.98679199 127.26193359 78.32006836 128.08105469 C79 130 79 130 79 132 C73.39 132 67.78 132 62 132 C61.01 129.525 61.01 129.525 60 127 C59.34 126.855625 58.68 126.71125 58 126.5625 C57.01 126.2840625 57.01 126.2840625 56 126 C54.75 122.9375 54.75 122.9375 54 120 C52.83174683 119.89764038 52.83174683 119.89764038 51.63989258 119.79321289 C49 119 49 119 47.69799805 116.95874023 C47.38902588 116.08419189 47.08005371 115.20964355 46.76171875 114.30859375 C46.44936279 113.45837646 46.13700684 112.60815918 45.81518555 111.73217773 C45.44304932 110.64493408 45.07091309 109.55769043 44.6875 108.4375 C43.470625 104.993125 42.25375 101.54875 41 98 C26.48 98 11.96 98 -3 98 C-7.29 109.22 -11.58 120.44 -16 132 C-21.61 132 -27.22 132 -33 132 C-32.67 130.35 -32.34 128.7 -32 127 C-34.31 126.67 -36.62 126.34 -39 126 C-38.67 124.02 -38.34 122.04 -38 120 C-40.97 120.495 -40.97 120.495 -44 121 C-43.566875 121.62648438 -43.13375 122.25296875 -42.6875 122.8984375 C-42.130625 123.71570313 -41.57375 124.53296875 -41 125.375 C-40.443125 126.18710937 -39.88625 126.99921875 -39.3125 127.8359375 C-38 130 -38 130 -38 132 C-40.75164432 132.13517903 -43.49664521 132.23415251 -46.25 132.3125 C-47.41595703 132.3753418 -47.41595703 132.3753418 -48.60546875 132.43945312 C-50.83949917 132.48718882 -52.81234031 132.46248432 -55 132 C-57.3828125 129.609375 -57.3828125 129.609375 -59 127 C-59.86625 126.319375 -60.7325 125.63875 -61.625 124.9375 C-64 123 -64 123 -66 119 C-61.38 119 -56.76 119 -52 119 C-58.98215555 107.6767568 -66.21620796 96.5480261 -73.625 85.5 C-74.63954335 83.98322034 -75.65386718 82.46629382 -76.66796875 80.94921875 C-79.10946731 77.29779158 -81.55387397 73.64832862 -84 70 C-81.32265992 68.21510661 -79.36673972 67.39124175 -76.375 66.375 C-68.82221548 63.38259561 -62.89189937 58.67896119 -59.5 51.1875 C-58.97054103 49.8025726 -58.46636659 48.40742776 -58 47 C-57.67 46.01 -57.34 45.02 -57 44 C-56.74616335 40.79627378 -56.76865162 37.58774178 -56.75 34.375 C-56.729375 33.51003906 -56.70875 32.64507812 -56.6875 31.75390625 C-56.65085009 25.64253445 -57.71402119 20.66322804 -60 15 C-51.48823782 21.91580677 -43.57745341 28.64852155 -42 40 C-41.12393308 51.58911385 -41.70708083 61.94059879 -49.26953125 71.18359375 C-54.42694579 76.59713271 -59.87645934 79.82671641 -67 82 C-67.99 82 -68.98 82 -70 82 C-58.615 99.325 -58.615 99.325 -47 117 C-44.86746125 114.86746125 -44.27080621 113.50101573 -43.20336914 110.71923828 C-42.85820755 109.82767532 -42.51304596 108.93611237 -42.15742493 108.01753235 C-41.78707626 107.0449498 -41.4167276 106.07236725 -41.03515625 105.0703125 C-40.64615646 104.06159592 -40.25715668 103.05287933 -39.85636902 102.01359558 C-38.58699549 98.71920335 -37.32485617 95.42208673 -36.0625 92.125 C-35.18844776 89.85417121 -34.31377167 87.58358244 -33.43847656 85.31323242 C-31.71977982 80.85483276 -30.00297842 76.39571162 -28.28759766 71.93603516 C-25.63673457 65.05029134 -22.95506131 58.17715087 -20.25 51.3125 C-19.84620117 50.28688965 -19.44240234 49.2612793 -19.02636719 48.20458984 C-17.94540507 45.46161677 -16.86327801 42.71910718 -15.78045654 39.97686768 C-14.88338245 37.70461205 -13.98683202 35.43215016 -13.09033203 33.15966797 C-8.72935763 22.1054696 -4.36578268 11.0523002 0 0 Z M18 40 C14.2334612 49.96644287 10.55699006 59.95673394 7 70 C14.92 70 22.84 70 31 70 C29.4036023 65.74693297 27.79827897 61.49761743 26.1875 57.25 C25.73568359 56.0434375 25.28386719 54.836875 24.81835938 53.59375 C24.37685547 52.43359375 23.93535156 51.2734375 23.48046875 50.078125 C23.07723389 49.00981445 22.67399902 47.94150391 22.25854492 46.84082031 C21.09192088 44.2074862 19.83176878 42.20650165 18 40 Z " fill="#FAFAFA" transform="translate(319,309)"/>
<path d="M0 0 C3.20550892 0.56471231 6.00432038 1.29852298 8.96289062 2.65136719 C9.71088425 2.99021942 10.45887787 3.32907166 11.22953796 3.67819214 C12.03035294 4.04735748 12.83116791 4.41652283 13.65625 4.796875 C14.50270584 5.18191193 15.34916168 5.56694885 16.2212677 5.96365356 C18.98301971 7.22105936 21.74145023 8.48558665 24.5 9.75 C26.41533521 10.62315882 28.33094599 11.49571338 30.24682617 12.36767578 C34.06947757 14.10764292 37.89123008 15.84956062 41.71240234 17.59277344 C48.56595966 20.71637536 55.43665463 23.80079676 62.3125 26.875 C63.45654297 27.38708008 64.60058594 27.89916016 65.77929688 28.42675781 C68.04757354 29.44198933 70.31596377 30.45696717 72.58447266 31.47167969 C77.94904595 33.87212492 83.31168715 36.27687722 88.67440796 38.68145752 C91.69951951 40.03782973 94.72476792 41.39389664 97.75 42.75 C102.58333333 44.91666667 107.41666667 47.08333333 112.25 49.25 C113.44592773 49.78608887 114.64185547 50.32217773 115.87402344 50.87451172 C118.29399558 51.95936053 120.71391735 53.04432171 123.13378906 54.12939453 C129.1244768 56.81545847 135.11598823 59.49965076 141.109375 62.1796875 C159.43967871 70.38011952 177.72670277 78.67343341 196 87 C196 87.99 196 88.98 196 90 C198.31 90.66 200.62 91.32 203 92 C202.29807572 97.33462451 199.90950492 99.96433467 196.4609375 103.9453125 C194.55826364 106.30704417 193.07350969 108.47244239 191.5390625 111.0546875 C186.22922422 119.48267682 186.22922422 119.48267682 182 122 C175.00382742 123.26808097 167.82066037 121.65532328 161 120 C160.71382812 119.19175781 160.42765625 118.38351562 160.1328125 117.55078125 C159.75898437 116.70902344 159.38515625 115.86726563 159 115 C156.95894361 114.11306697 156.95894361 114.11306697 155 114 C155.53985046 109.38127938 157.43965817 106.47604931 160.0625 102.6875 C160.79597656 101.61886719 161.52945312 100.55023438 162.28515625 99.44921875 C162.85105469 98.64097656 163.41695312 97.83273437 164 97 C144.20858628 87.53173856 124.40589706 78.10502494 104.40606689 69.0836792 C92.1825326 63.56884772 80.06131464 57.86280418 68 52 C67.67 52.33 67.34 52.66 67 53 C69.31 53.99 71.62 54.98 74 56 C73.64595533 61.35113224 70.63372235 64.16100649 67.1875 67.9375 C65.99824719 69.27433875 64.80945556 70.61158789 63.62109375 71.94921875 C63.0163623 72.62388184 62.41163086 73.29854492 61.78857422 73.99365234 C59.06870621 77.04468637 56.40666278 80.14394073 53.75 83.25 C53.0062915 84.11661255 53.0062915 84.11661255 52.24755859 85.00073242 C49.21662417 88.54252677 46.24770199 92.12805231 43.3125 95.75 C39.72235961 100.17113129 35.98235215 104.42223255 32.1484375 108.6328125 C29.4960488 111.5552626 26.90150564 114.52535115 24.3125 117.50390625 C23.56450684 118.35652941 22.80201622 119.19798378 22 120 C19.13732433 120.07325168 16.299281 120.09238205 13.4375 120.0625 C12.63119141 120.05798828 11.82488281 120.05347656 10.99414062 120.04882812 C8.99606244 120.03700518 6.99802217 120.01906914 5 120 C4.67 119.01 4.34 118.02 4 117 C2.68 117 1.36 117 0 117 C0 115.68 0 114.36 0 113 C-0.66 113 -1.32 113 -2 113 C-2.29219033 85.89597589 -1.82303415 58.83968698 -1 31.75 C-0.97608437 30.96257542 -0.95216873 30.17515083 -0.92752838 29.3638649 C-0.62923422 19.57555609 -0.31985211 9.78762882 0 0 Z M21 30 C20.06386807 41.97444837 19.70188969 53.93204983 19.4375 65.9375 C19.39417559 67.79623087 19.35055761 69.65495491 19.30664062 71.51367188 C19.20105229 76.00904338 19.09940308 80.50448764 19 85 C22.22404512 81.80713712 25.22821849 78.60671715 28.0625 75.0625 C33.09858548 68.83897631 38.28181469 62.74643968 43.54199219 56.71118164 C44.56772482 55.50733703 45.56623592 54.28002799 46.54394531 53.03686523 C47.0540918 52.39950439 47.56423828 51.76214355 48.08984375 51.10546875 C48.54351318 50.52176514 48.99718262 49.93806152 49.46459961 49.33666992 C51.476956 47.58477753 52.7388939 47.55932848 55.375 47.5625 C57.169375 47.7790625 57.169375 47.7790625 59 48 C55.54362166 45.13937918 51.72038937 43.30265707 47.6796875 41.42578125 C46.9798172 41.09708542 46.2799469 40.76838959 45.55886841 40.42973328 C44.08570454 39.73924358 42.61146793 39.05103851 41.13623047 38.36499023 C38.87293822 37.31154035 36.61403705 36.24908083 34.35546875 35.18554688 C32.9221276 34.51508471 31.48854218 33.84514446 30.0546875 33.17578125 C29.37759735 32.85708572 28.7005072 32.5383902 28.00289917 32.21003723 C24.6431847 30.55245546 24.6431847 30.55245546 21 30 Z " fill="#FBFBFA" transform="translate(1016,293)"/>
<path d="M0 0 C25.08 0 50.16 0 76 0 C74.90210221 4.39159114 73.74320505 5.66425918 70.6875 8.875 C67.38208254 12.43306083 64.51114931 15.85114462 62 20 C63.65 20.33 65.3 20.66 67 21 C66.4887988 25.50343911 64.82478642 27.87525426 61.9375 31.3125 C61.20402344 32.19550781 60.47054688 33.07851563 59.71484375 33.98828125 C59.14894531 34.65214844 58.58304688 35.31601562 58 36 C60.97 36.495 60.97 36.495 64 37 C63.67010597 42.44325154 60.54262773 45.15587204 57 49 C63.93 49.495 63.93 49.495 71 50 C69.27982408 53.44035184 67.66032173 55.81650767 65.25 58.75 C61.72044285 63.09109766 58.33005772 67.50442208 55 72 C59.29 72.33 63.58 72.66 68 73 C66.9097182 77.36112722 65.49903587 79.24095275 62.6875 82.6875 C61.90761719 83.66074219 61.12773438 84.63398438 60.32421875 85.63671875 C57.85064641 88.15186373 57.3300844 88.49855186 54 89 C51.68199337 89.01570035 49.36325103 88.96724262 47.046875 88.87890625 C46.38665344 88.85529526 45.72643188 88.83168427 45.04620361 88.80735779 C42.947231 88.7310719 40.84866051 88.64689847 38.75 88.5625 C37.32293603 88.5092441 35.89585272 88.45650396 34.46875 88.40429688 C30.97892267 88.27550501 27.48941202 88.13963981 24 88 C24 88.66 24 89.32 24 90 C38.85 90 53.7 90 69 90 C66.74872932 94.50254135 64.05913174 98.00982817 61 102 C66.28 102.33 71.56 102.66 77 103 C76.06601206 106.73595176 75.54745585 107.90059538 73.234375 110.71484375 C72.67363281 111.40126953 72.11289063 112.08769531 71.53515625 112.79492188 C70.94605469 113.50197266 70.35695313 114.20902344 69.75 114.9375 C69.17636719 115.64068359 68.60273437 116.34386719 68.01171875 117.06835938 C66.36418217 119.0705479 64.71799791 121.05775865 63 123 C62.01398804 124.34143066 62.01398804 124.34143066 61.00805664 125.70996094 C56.42502237 129.19903337 52.17863736 128.62371751 46.57421875 128.48828125 C45.47149124 128.48120651 44.36876373 128.47413177 43.23262024 128.46684265 C39.71688483 128.43889489 36.20275257 128.37615165 32.6875 128.3125 C30.30145532 128.28741781 27.91538563 128.26460451 25.52929688 128.24414062 C19.68565263 128.18906692 13.84294085 128.10543545 8 128 C8 126.35 8 124.7 8 123 C6.68 123 5.36 123 4 123 C4 121.35 4 119.7 4 118 C2.68 118 1.36 118 0 118 C0 79.06 0 40.12 0 0 Z " fill="#FCFCFC" transform="translate(980,422)"/>
<path d="M0 0 C7.26 0 14.52 0 22 0 C22.66 1.32 23.32 2.64 24 4 C24.97753644 5.02196992 25.9805881 6.01979625 27 7 C29.81946743 10.3382147 32.08131678 13.68676701 34.1796875 17.515625 C34.77144775 18.58893066 35.36320801 19.66223633 35.97290039 20.76806641 C36.60059326 21.91710449 37.22828613 23.06614258 37.875 24.25 C38.54167712 25.46173362 39.20892284 26.67315455 39.87670898 27.88427734 C40.9055117 29.75028875 41.93398148 31.61647445 42.96073914 33.48361206 C46.29626183 39.54863901 49.67666412 45.58788247 53.0625 51.625 C60.04550979 64.08117963 67.02273642 76.54060075 74 89 C74.33 59.63 74.66 30.26 75 0 C80.28 0 85.56 0 91 0 C91 1.65 91 3.3 91 5 C92.32 5 93.64 5 95 5 C95 6.65 95 8.3 95 10 C96.32 10 97.64 10 99 10 C99.02332961 25.23763064 99.04097948 40.47526046 99.05181217 55.71290493 C99.056975 62.78753187 99.06401744 69.86214774 99.07543945 76.93676758 C99.08644681 83.75778878 99.09227618 90.57879844 99.09487724 97.39982796 C99.09673205 100.00866948 99.1003537 102.61751033 99.10573006 105.22634697 C99.11293643 108.86632552 99.11399111 112.50625575 99.11352539 116.14624023 C99.11712067 117.23668137 99.12071594 118.3271225 99.12442017 119.4506073 C99.1230455 120.43643799 99.12167084 121.42226868 99.12025452 122.43797302 C99.12117631 123.29984946 99.1220981 124.1617259 99.12304783 125.04971981 C99 127 99 127 98 128 C90.82854645 128.93809851 81.47907555 130.06953139 75.1171875 126.28515625 C71 121.52196653 71 121.52196653 71 118 C70.34 118 69.68 118 69 118 C66.0625 112.67578125 66.0625 112.67578125 65.11834717 110.96440125 C63.35296809 107.76450944 61.58733621 104.56475752 59.82128906 101.36523438 C56.4857467 95.32172292 53.15109846 89.27774457 49.82629395 83.22831726 C48.46138993 80.74511209 47.09522855 78.26259961 45.72900391 75.78012085 C44.7960023 74.08364589 43.8647524 72.38620791 42.93359375 70.6887207 C37.07974395 60.05511479 31.04064929 49.52827941 25 39 C24.98969254 40.10025009 24.97938507 41.20050018 24.96876526 42.33409119 C24.87120698 52.67928674 24.76849005 63.02441977 24.66066074 73.36951351 C24.60538593 78.68862221 24.55195878 84.00773635 24.50268555 89.3269043 C24.45510906 94.45568867 24.40276896 99.5844039 24.34705925 104.71310616 C24.32660516 106.67439628 24.30789725 108.63570538 24.29092598 110.59702873 C24.26694931 113.33420584 24.23688596 116.071251 24.20532227 118.80834961 C24.1995668 119.62761932 24.19381134 120.44688904 24.18788147 121.29098511 C24.11405216 126.88594784 24.11405216 126.88594784 23 128 C20.46950598 128.07313567 17.96695163 128.09247527 15.4375 128.0625 C14.72658203 128.05798828 14.01566406 128.05347656 13.28320312 128.04882812 C11.52209987 128.03700864 9.76103964 128.01907263 8 128 C8 126.35 8 124.7 8 123 C6.68 123 5.36 123 4 123 C4 121.35 4 119.7 4 118 C2.68 118 1.36 118 0 118 C0 79.06 0 40.12 0 0 Z " fill="#FBFBFB" transform="translate(1070,422)"/>
<path d="M0 0 C1.18613892 0.00785522 1.18613892 0.00785522 2.39624023 0.01586914 C3.67724609 0.02070313 3.67724609 0.02070313 4.98413086 0.02563477 C5.88196289 0.03401367 6.77979492 0.04239258 7.70483398 0.05102539 C8.6065332 0.05553711 9.50823242 0.06004883 10.43725586 0.06469727 C12.67234712 0.07652315 14.90730835 0.09300319 17.14233398 0.11352539 C18.13233398 3.08352539 18.13233398 3.08352539 19.14233398 6.11352539 C19.92608398 6.17540039 20.70983398 6.23727539 21.51733398 6.30102539 C22.38358398 6.56915039 23.24983398 6.83727539 24.14233398 7.11352539 C24.84445292 8.76556995 25.51204812 10.43276308 26.14233398 12.11352539 C26.77848633 12.2432373 27.41463867 12.37294922 28.07006836 12.5065918 C30.14233398 13.11352539 30.14233398 13.11352539 31.28881836 14.89624023 C31.60141602 15.69755371 31.91401367 16.49886719 32.23608398 17.32446289 C32.61603516 18.27554932 32.99598633 19.22663574 33.38745117 20.20654297 C33.8015625 21.28959717 34.21567383 22.37265137 34.64233398 23.48852539 C35.10027344 24.64827881 35.55821289 25.80803223 36.0300293 27.00292969 C37.11129708 29.74212819 38.18164531 32.48532915 39.24584961 35.23120117 C41.40622993 40.80218457 43.59507987 46.3618903 45.78295898 51.92211914 C48.79206393 59.57357437 51.79364115 67.22790683 54.78631592 74.88580322 C58.42044397 84.18452741 62.07172956 93.47576671 65.76733398 102.75024414 C66.47470215 104.52847854 67.18205927 106.30671734 67.8894043 108.08496094 C68.88161925 110.57867646 69.87552534 113.07164209 70.87512207 115.56240845 C71.7758682 117.80689393 72.67061812 120.05368379 73.56420898 122.30102539 C73.82878906 122.95475632 74.09336914 123.60848724 74.3659668 124.2820282 C75.46902692 127.07041559 76.14233398 129.08113666 76.14233398 132.11352539 C70.86233398 132.11352539 65.58233398 132.11352539 60.14233398 132.11352539 C59.48233398 130.13352539 58.82233398 128.15352539 58.14233398 126.11352539 C56.49233398 126.11352539 54.84233398 126.11352539 53.14233398 126.11352539 C52.91545898 125.16477539 52.68858398 124.21602539 52.45483398 123.23852539 C52.02170898 122.20727539 51.58858398 121.17602539 51.14233398 120.11352539 C50.36889648 119.91500977 49.59545898 119.71649414 48.79858398 119.51196289 C44.4625166 117.22915094 43.81350548 113.08746637 42.32983398 108.61352539 C42.01852539 107.7330957 41.7072168 106.85266602 41.38647461 105.94555664 C39.14233398 99.50413322 39.14233398 99.50413322 39.14233398 97.11352539 C24.29233398 97.11352539 9.44233398 97.11352539 -5.85766602 97.11352539 C-6.84766602 100.41352539 -7.83766602 103.71352539 -8.85766602 107.11352539 C-9.57551863 109.18591747 -10.31424074 111.25133963 -11.08422852 113.30493164 C-11.47610352 114.35100586 -11.86797852 115.39708008 -12.27172852 116.47485352 C-12.67133789 117.53124023 -13.07094727 118.58762695 -13.48266602 119.67602539 C-13.89000977 120.7672168 -14.29735352 121.8584082 -14.71704102 122.98266602 C-17.72813149 130.98399086 -17.72813149 130.98399086 -18.85766602 132.11352539 C-21.55421455 132.1867216 -24.2245806 132.20595076 -26.92016602 132.17602539 C-27.6787793 132.17151367 -28.43739258 132.16700195 -29.21899414 132.16235352 C-31.09858473 132.15053219 -32.978135 132.13259617 -34.85766602 132.11352539 C-34.52766602 130.46352539 -34.19766602 128.81352539 -33.85766602 127.11352539 C-36.49766602 126.78352539 -39.13766602 126.45352539 -41.85766602 126.11352539 C-41.52766602 124.46352539 -41.19766602 122.81352539 -40.85766602 121.11352539 C-43.16766602 120.78352539 -45.47766602 120.45352539 -47.85766602 120.11352539 C-47.22561989 115.03577326 -45.70549776 110.71176152 -43.82250977 106.00024414 C-43.51235428 105.21034592 -43.20219879 104.42044769 -42.88264465 103.60661316 C-41.85882927 101.0026101 -40.82693999 98.40188409 -39.79516602 95.80102539 C-39.07286412 93.96744876 -38.35119473 92.13362286 -37.63012695 90.29956055 C-36.12820693 86.48087146 -34.62355493 82.66327597 -33.11694336 78.84643555 C-29.9267459 70.75873378 -26.7679057 62.65882484 -23.60992432 54.5585022 C-22.61185402 51.99926421 -21.61259547 49.44049306 -20.61303711 46.88183594 C-17.46558659 38.82224105 -14.32977348 30.75841717 -11.22094727 22.68383789 C-10.93728302 21.94777313 -10.65361877 21.21170837 -10.36135864 20.45333862 C-9.03670939 17.01568612 -7.71465316 13.57708486 -6.39770508 10.13647461 C-5.71466309 8.36167725 -5.71466309 8.36167725 -5.01782227 6.55102539 C-4.42432983 5.0022168 -4.42432983 5.0022168 -3.81884766 3.42211914 C-2.45655466 0.15012458 -2.45655466 0.15012458 0 0 Z M16.14233398 41.11352539 C8.85534002 55.2465581 8.85534002 55.2465581 5.14233398 70.11352539 C12.73233398 70.11352539 20.32233398 70.11352539 28.14233398 70.11352539 C25.76309977 62.91433748 25.76309977 62.91433748 23.09936523 55.85961914 C22.7480957 54.9862793 22.39682617 54.11293945 22.03491211 53.21313477 C21.67848633 52.33463867 21.32206055 51.45614258 20.95483398 50.55102539 C20.58680664 49.63772461 20.2187793 48.72442383 19.83959961 47.78344727 C18.94289852 45.55916275 18.04377801 43.33589094 17.14233398 41.11352539 C16.81233398 41.11352539 16.48233398 41.11352539 16.14233398 41.11352539 Z " fill="#F9F9F9" transform="translate(508.857666015625,308.886474609375)"/>
<path d="M0 0 C21 0 21 0 27 5.5 C28.45556641 7.49438477 28.45556641 7.49438477 29.4765625 9.37890625 C29.88036133 10.10867676 30.28416016 10.83844727 30.70019531 11.59033203 C31.12913086 12.38552246 31.55806641 13.18071289 32 14 C33.02856718 15.82165899 34.05721774 17.64327091 35.0859375 19.46484375 C37.33476976 23.51294372 39.51901967 27.58947444 41.66796875 31.69140625 C44.88452044 37.82487787 48.25919662 43.85788481 51.6875 49.875 C52.76589747 51.77328274 53.84402759 53.67171738 54.921875 55.5703125 C55.43814453 56.47942383 55.95441406 57.38853516 56.48632812 58.32519531 C58.82368915 62.45553844 61.13404342 66.60067436 63.4375 70.75 C63.81414795 71.42788574 64.1907959 72.10577148 64.57885742 72.80419922 C67.7481179 78.5207747 70.86986659 84.26142209 74 90 C74.33 60.3 74.66 30.6 75 0 C79.95 0 84.9 0 90 0 C90.495 2.475 90.495 2.475 91 5 C91.99 5 92.98 5 94 5 C94 6.65 94 8.3 94 10 C95.32 10 96.64 10 98 10 C98 48.94 98 87.88 98 128 C91.07 128 84.14 128 77 128 C76.34 126.35 75.68 124.7 75 123 C73.515 122.505 73.515 122.505 72 122 C71.66666667 120.66666667 71.33333333 119.33333333 71 118 C69.515 117.505 69.515 117.505 68 117 C66.67236328 115.04833984 66.67236328 115.04833984 65.3203125 112.4609375 C64.81064941 111.50018311 64.30098633 110.53942871 63.77587891 109.54956055 C63.23108887 108.50195557 62.68629883 107.45435059 62.125 106.375 C60.94975637 104.15917951 59.77262661 101.94435853 58.59375 99.73046875 C57.99433594 98.6017334 57.39492188 97.47299805 56.77734375 96.31005859 C54.13650957 91.39186768 51.38877575 86.53737027 48.625 81.6875 C42.99396502 71.78548285 37.4496368 61.83757993 31.93603516 51.86987305 C31.33581543 50.78617432 30.7355957 49.70247559 30.1171875 48.5859375 C29.58722168 47.6273584 29.05725586 46.6687793 28.51123047 45.68115234 C27.05323369 43.09444465 25.52769821 40.54616368 24 38 C23.67 67.7 23.34 97.4 23 128 C18.05 128 13.1 128 8 128 C8 126.35 8 124.7 8 123 C6.68 123 5.36 123 4 123 C4 121.35 4 119.7 4 118 C2.68 118 1.36 118 0 118 C0 79.06 0 40.12 0 0 Z " fill="#F9F9F9" transform="translate(874,422)"/>
<path d="M0 0 C5.61 0 11.22 0 17 0 C17.33 1.98 17.66 3.96 18 6 C19.65 6 21.3 6 23 6 C23.66 8.31 24.32 10.62 25 13 C26.65 13 28.3 13 30 13 C30.45101074 14.36088745 30.45101074 14.36088745 30.91113281 15.74926758 C32.35521405 20.10441264 33.80238794 24.45852749 35.25 28.8125 C35.51478149 29.60945282 35.77956299 30.40640564 36.05236816 31.22750854 C39.14411073 40.5274897 42.2657809 49.81580081 45.46875 59.078125 C45.88468414 60.28241402 45.88468414 60.28241402 46.309021 61.5110321 C47.64657121 65.38111441 48.98977325 69.24911117 50.34082031 73.11450195 C50.82631993 74.51508541 51.3116792 75.91571752 51.796875 77.31640625 C52.22323242 78.53787354 52.64958984 79.75934082 53.08886719 81.01782227 C54 84 54 84 54 87 C54.66 87 55.32 87 56 87 C56.12205811 86.13584473 56.24411621 85.27168945 56.36987305 84.38134766 C56.99314086 81.03680709 57.9158644 78.09096482 59.08203125 74.8984375 C59.51370605 73.703396 59.94538086 72.50835449 60.39013672 71.27709961 C60.6215033 70.64270966 60.85286987 70.0083197 61.09124756 69.35470581 C66.26952749 55.14127612 71.11621382 40.82689138 75.85083008 26.46044922 C78.77733281 17.59208578 81.82418415 8.78257437 85 0 C90.61 0 96.22 0 102 0 C101.67 1.98 101.34 3.96 101 6 C103.64 6 106.28 6 109 6 C108.125 10.75 108.125 10.75 107 13 C109.64 13 112.28 13 115 13 C113.74904918 19.20212416 112.0856562 25.1223584 110.015625 31.09765625 C109.72352142 31.95299454 109.43141785 32.80833282 109.13046265 33.68959045 C108.17516104 36.48225079 107.21276398 39.27240441 106.25 42.0625 C105.57703415 44.02383074 104.90434952 45.985258 104.23193359 47.94677734 C98.35135543 65.07617883 92.36780597 82.1695458 86.36459351 99.25627136 C82.53700611 110.15723621 78.7703119 121.07909656 75 132 C67.41 132 59.82 132 52 132 C51.67 130.02 51.34 128.04 51 126 C49.35 126 47.7 126 46 126 C45.773125 125.21625 45.54625 124.4325 45.3125 123.625 C44.879375 122.75875 44.44625 121.8925 44 121 C43.20198975 120.75330566 42.40397949 120.50661133 41.58178711 120.25244141 C39 119 39 119 37.55297852 116.10302734 C37.16553467 114.8598877 36.77809082 113.61674805 36.37890625 112.3359375 C36.15790756 111.64907867 35.93690887 110.96221985 35.70921326 110.25454712 C35.2295143 108.75687067 34.75868876 107.25633012 34.2956543 105.75341797 C33.29158789 102.49613693 32.24470906 99.25313725 31.19955444 96.0088501 C30.6470596 94.29348829 30.09666329 92.57744932 29.54824829 90.86077881 C26.82014551 82.3477989 23.86809257 73.91927845 20.88287354 65.49368286 C16.15229552 52.13213011 11.49778194 38.74498932 6.98461914 25.30834961 C6.45937147 23.74611987 5.93207652 22.18457674 5.40258789 20.6237793 C4.67233013 18.46866269 3.95021957 16.3109886 3.23046875 14.15234375 C2.82207764 12.93538818 2.41368652 11.71843262 1.99291992 10.46459961 C1 7 1 7 0 0 Z " fill="#F9F9F9" transform="translate(372,309)"/>
<path d="M0 0 C166.65 0 333.3 0 505 0 C509 8 509 8 509 11 C461.33504667 11.11981307 413.67008218 11.2312594 366.00502014 11.29640198 C364.94705198 11.29785158 364.94705198 11.29785158 363.86771072 11.29933046 C348.53985564 11.32028018 333.21199896 11.33967155 317.88413989 11.35745731 C310.36750241 11.36618876 302.85086537 11.37526462 295.33422852 11.38452148 C294.58622764 11.3854368 293.83822676 11.38635211 293.06755919 11.38729516 C268.81702006 11.41713151 244.566595 11.46971575 220.31612499 11.53408055 C195.39829715 11.60009659 170.48053245 11.64319527 145.56261863 11.65740493 C142.04418764 11.65942205 138.52575686 11.66170151 135.00732613 11.6641407 C133.96859648 11.66484864 133.96859648 11.66484864 132.9088824 11.66557089 C121.75589505 11.67384711 110.60310279 11.70632461 99.45019505 11.74782424 C88.24124535 11.78901695 77.0324856 11.80421326 65.82344424 11.79450964 C59.7485779 11.79001474 53.6742848 11.79702786 47.59951973 11.83443832 C42.04079422 11.86842174 36.48302916 11.87027691 30.92426009 11.84629226 C28.91067064 11.8433266 26.89702204 11.85227663 24.88354956 11.87418228 C22.14973202 11.90220159 19.41939944 11.88719146 16.68563747 11.8613348 C15.9002495 11.8797239 15.11486153 11.89811299 14.30567393 11.91705933 C9.71528633 11.81866135 7.38168079 10.89182673 4.01964766 7.69616657 C1.43719008 4.94854302 0.96344094 3.85376375 0 0 Z " fill="#1C3311" transform="translate(78,452)"/>
<path d="M0 0 C8.11947473 8.11947473 10.0860336 27.95361256 10.13671875 39.1796875 C9.47239536 57.74278103 3.85324391 72.82364302 -9.75 85.75 C-19.35440609 93.93640398 -29.91783063 98.69385653 -42 102 C-43.12921875 102.32097656 -44.2584375 102.64195312 -45.421875 102.97265625 C-66.38589012 107.89324932 -90.29571399 106.24175496 -111 101 C-112.09803955 100.72712158 -112.09803955 100.72712158 -113.21826172 100.44873047 C-123.88106365 97.70266019 -133.31678005 93.13146246 -143 88 C-144.99728755 86.9945934 -146.99631457 85.99259494 -149 85 C-148.40049704 81.31733897 -147.75241109 77.65456815 -147 74 C-148.98 72.68 -150.96 71.36 -153 70 C-152.49287967 66.28111761 -151.88391785 63.26545761 -150 60 C-147.63845533 60.94267421 -145.27758994 61.88622078 -142.92480469 62.85058594 C-122.41677125 71.21649352 -103.3224204 75.17653669 -81.1875 75.1875 C-79.89779297 75.19974609 -78.60808594 75.21199219 -77.27929688 75.22460938 C-54.19727549 75.2596352 -31.8414949 68.43665127 -15 52 C-4.37818135 39.58776116 -0.91298792 25.83530841 -0.375 9.875 C-0.31699219 8.44027344 -0.31699219 8.44027344 -0.2578125 6.9765625 C-0.16479872 4.65121801 -0.07896229 2.32585665 0 0 Z " fill="#010101" transform="translate(729,459)"/>
<path d="M0 0 C0.7885553 -0.00115384 1.57711059 -0.00230769 2.3895615 -0.0034965 C5.05397548 -0.00616094 7.71833003 -0.00164239 10.38274097 0.00279331 C12.30336245 0.00235758 14.22398388 0.00148262 16.14460498 0.00020415 C21.43956629 -0.00204033 26.73450752 0.00197984 32.02946627 0.00698221 C37.73294331 0.01128719 43.43641914 0.00984025 49.13989735 0.00907993 C59.02729214 0.00855473 68.91468034 0.01170117 78.80207348 0.01731777 C93.09771265 0.02543324 107.39334863 0.02804804 121.68898986 0.02930576 C144.88083884 0.03149621 168.07268409 0.03814752 191.26453114 0.04760838 C213.79773407 0.05678995 236.33093608 0.06387496 258.86414051 0.06811619 C259.55848193 0.06824771 260.25282335 0.06837924 260.96820542 0.06851475 C267.94094752 0.06983325 274.91368962 0.07110907 281.88643174 0.07235361 C340.38054989 0.08279805 398.8746645 0.1004474 457.36877918 0.12304783 C457.01426267 4.14090158 455.63437725 6.90005214 452.92852167 9.91284944 C450.09241438 12.11337452 446.92920502 11.94320513 443.50708008 11.87695217 C442.32331816 11.88986933 442.32331816 11.88986933 441.11564186 11.90304744 C438.46049054 11.92467448 435.80740475 11.9034366 433.15227222 11.8825388 C431.23403888 11.88928383 429.31581327 11.89866042 427.39760429 11.91044819 C422.11835646 11.93524608 416.83975283 11.92259963 411.56050384 11.90398455 C405.87064867 11.89043061 400.18091018 11.91139441 394.49107838 11.92820835 C384.6304025 11.9526033 374.76991627 11.95503163 364.9092207 11.94262409 C350.65227613 11.92471646 336.39551751 11.93980718 322.13858757 11.96300341 C299.00883884 11.99973739 275.87916729 12.00976179 252.74939442 12.00293064 C230.27834215 11.99635757 207.80735076 12.00235839 185.33630848 12.02539158 C184.29743201 12.02644893 184.29743201 12.02644893 183.23756814 12.02752764 C176.28238842 12.03462038 169.32720899 12.04196884 162.37202974 12.04950468 C104.03761222 12.11268522 45.70322908 12.13271272 -12.63122082 12.12304783 C-13.5205305 8.58984449 -13.7356012 7.39443681 -12.38122082 3.87304783 C-9.35917639 -0.87587914 -5.11804327 -0.01821494 0 0 Z " fill="#1E3511" transform="translate(744.6312208175659,559.8769521713257)"/>
<path d="M0 0 C30.69 0 61.38 0 93 0 C93.495 2.475 93.495 2.475 94 5 C94.99 5 95.98 5 97 5 C97 6.65 97 8.3 97 10 C98.32 10 99.64 10 101 10 C101 14.95 101 19.9 101 25 C88.46 25 75.92 25 63 25 C63.00523682 28.084646 63.01047363 31.16929199 63.01586914 34.34741211 C63.03240302 44.51348243 63.04347041 54.67955333 63.05181217 64.84563351 C63.05704158 71.0122492 63.06414027 77.17885118 63.07543945 83.34545898 C63.08626629 89.29116006 63.0922764 95.23684789 63.09487724 101.18255806 C63.09673186 103.45646943 63.10035317 105.73038004 63.10573006 108.00428581 C63.11293778 111.1772712 63.11399106 114.35020117 63.11352539 117.52319336 C63.11712067 118.47337341 63.12071594 119.42355347 63.12442017 120.40252686 C63.11405216 126.88594784 63.11405216 126.88594784 62 128 C59.46950598 128.07313567 56.96695163 128.09247527 54.4375 128.0625 C53.37112305 128.05573242 53.37112305 128.05573242 52.28320312 128.04882812 C50.52209987 128.03700864 48.76103964 128.01907263 47 128 C47 126.35 47 124.7 47 123 C45.68 123 44.36 123 43 123 C43 121.35 43 119.7 43 118 C41.68 118 40.36 118 39 118 C38.67 87.31 38.34 56.62 38 25 C28.43 25 18.86 25 9 25 C8.67 23.35 8.34 21.7 8 20 C6.68 20 5.36 20 4 20 C4 18.35 4 16.7 4 15 C2.68 15 1.36 15 0 15 C0 10.05 0 5.1 0 0 Z " fill="#FCFCFC" transform="translate(739,422)"/>
<path d="M0 0 C3.30295163 0.25236285 6.54804457 0.62607367 9.8125 1.1875 C9.1525 2.5075 8.4925 3.8275 7.8125 5.1875 C9.7925 5.1875 11.7725 5.1875 13.8125 5.1875 C13.8125 6.1775 13.8125 7.1675 13.8125 8.1875 C13.1525 8.5175 12.4925 8.8475 11.8125 9.1875 C13.7925 9.5175 15.7725 9.8475 17.8125 10.1875 C16.38159959 13.42057612 14.62194011 15.67391626 12.1875 18.2265625 C11.12789062 19.34417969 11.12789062 19.34417969 10.046875 20.484375 C9.30953125 21.25265625 8.5721875 22.0209375 7.8125 22.8125 C6.70648437 23.97652344 6.70648437 23.97652344 5.578125 25.1640625 C-2.05005369 33.18200215 -2.05005369 33.18200215 -5.3125 33.3125 C-6.26125 33.27125 -7.21 33.23 -8.1875 33.1875 C-8.1875 34.1775 -8.1875 35.1675 -8.1875 36.1875 C-6.8675 36.1875 -5.5475 36.1875 -4.1875 36.1875 C-4.1875 37.8375 -4.1875 39.4875 -4.1875 41.1875 C-2.8675 41.1875 -1.5475 41.1875 -0.1875 41.1875 C-0.16417039 56.42513064 -0.14652052 71.66276046 -0.13568783 86.90040493 C-0.130525 93.97503187 -0.12348256 101.04964774 -0.11206055 108.12426758 C-0.10105319 114.94528878 -0.09522382 121.76629844 -0.09262276 128.58732796 C-0.09076795 131.19616948 -0.0871463 133.80501033 -0.08176994 136.41384697 C-0.07456357 140.05382552 -0.07350889 143.69375575 -0.07397461 147.33374023 C-0.07037933 148.42418137 -0.06678406 149.5146225 -0.06307983 150.6381073 C-0.0644545 151.62393799 -0.06582916 152.60976868 -0.06724548 153.62547302 C-0.06632369 154.48734946 -0.0654019 155.3492259 -0.06445217 156.23721981 C-0.1875 158.1875 -0.1875 158.1875 -1.1875 159.1875 C-3.54063555 159.26021741 -5.89583668 159.27120868 -8.25 159.25 C-9.54035156 159.24097656 -10.83070313 159.23195313 -12.16015625 159.22265625 C-13.65869141 159.20525391 -13.65869141 159.20525391 -15.1875 159.1875 C-15.5175 157.5375 -15.8475 155.8875 -16.1875 154.1875 C-17.5075 154.1875 -18.8275 154.1875 -20.1875 154.1875 C-20.1875 152.5375 -20.1875 150.8875 -20.1875 149.1875 C-21.5075 149.1875 -22.8275 149.1875 -24.1875 149.1875 C-24.1875 110.2475 -24.1875 71.3075 -24.1875 31.1875 C-20.8875 31.1875 -17.5875 31.1875 -14.1875 31.1875 C-14.1875 30.5275 -14.1875 29.8675 -14.1875 29.1875 C-15.8375 29.1875 -17.4875 29.1875 -19.1875 29.1875 C-18.8575 27.5375 -18.5275 25.8875 -18.1875 24.1875 C-19.8375 24.1875 -21.4875 24.1875 -23.1875 24.1875 C-20.21857204 11.11379968 -14.67019491 -0.70515559 0 0 Z " fill="#FEFEFE" transform="translate(866.1875,390.8125)"/>
<path d="M0 0 C1.19036865 0.01015137 2.3807373 0.02030273 3.60717773 0.03076172 C25.08247846 0.4077521 44.35461461 6.64873622 62.8125 17.375 C62.99425781 16.78332031 63.17601562 16.19164062 63.36328125 15.58203125 C64.76917057 11.162492 66.18777181 7.24959875 68.8125 3.375 C70.13073302 3.96655331 71.44197051 4.57371463 72.75 5.1875 C73.84634766 5.69216797 73.84634766 5.69216797 74.96484375 6.20703125 C76.8125 7.375 76.8125 7.375 77.8125 10.375 C76.89046291 12.74022558 75.89551035 15.07901807 74.8125 17.375 C77.1225 19.025 79.4325 20.675 81.8125 22.375 C81.11785753 27.47595665 79.04484461 31.9489488 77 36.625 C76.65646484 37.45257813 76.31292969 38.28015625 75.95898438 39.1328125 C75.44368164 40.31230469 75.44368164 40.31230469 74.91796875 41.515625 C74.61012451 42.23266602 74.30228027 42.94970703 73.98510742 43.68847656 C72.8125 45.375 72.8125 45.375 70.88793945 46.24511719 C67.73367863 46.44251358 65.92246012 44.59361949 63.38671875 42.90625 C42.96847775 30.76064989 14.50495311 26.67860143 -8.5625 31.5625 C-18.73499031 34.49401447 -25.972091 38.62573121 -32.1875 47.375 C-33.45335227 49.70638448 -34.32921963 51.8538014 -35.1875 54.375 C-40.27012579 52.5597765 -42.21796503 48.41102345 -44.4375 43.75 C-46.11364541 36.20734565 -46.43067804 26.55542141 -43.1875 19.375 C-32.59782189 4.15088945 -17.79866708 -0.22022101 0 0 Z " fill="#010101" transform="translate(650.1875,327.625)"/>
<path d="M0 0 C31.02 0 62.04 0 94 0 C93.67 4.62 93.34 9.24 93 14 C80.13 14 67.26 14 54 14 C54 48.65 54 83.3 54 119 C49.38 119.33 44.76 119.66 40 120 C38.155281 118.155281 38.8799781 115.55483588 38.87557983 113.1006012 C38.88097275 111.8296183 38.88097275 111.8296183 38.88647461 110.53295898 C38.88632858 109.64523804 38.88618256 108.75751709 38.8860321 107.84289551 C38.88673157 104.89393716 38.89452552 101.94504113 38.90234375 98.99609375 C38.90420781 96.95728083 38.90563177 94.91846746 38.90663147 92.87965393 C38.91045759 87.50215426 38.92028868 82.12468142 38.93133545 76.74719238 C38.94154755 71.26440799 38.94612866 65.78161928 38.95117188 60.29882812 C38.96191086 49.53253838 38.97950842 38.76627561 39 28 C30.42 28 21.84 28 13 28 C13 25.69 13 23.38 13 21 C10.69 21 8.38 21 6 21 C6 19.02 6 17.04 6 15 C4.02 15 2.04 15 0 15 C0 10.05 0 5.1 0 0 Z " fill="#FDFDFD" transform="translate(72,309)"/>
<path d="M0 0 C4.95 0.33 9.9 0.66 15 1 C15 2.32 15 3.64 15 5 C16.32 5 17.64 5 19 5 C19 6.65 19 8.3 19 10 C20.32 10 21.64 10 23 10 C23 48.94 23 87.88 23 128 C18.05 128 13.1 128 8 128 C7.505 125.525 7.505 125.525 7 123 C5.68 122.67 4.36 122.34 3 122 C3 121.01 3 120.02 3 119 C2.01 118.67 1.02 118.34 0 118 C0 79.06 0 40.12 0 0 Z " fill="#F7F7F7" transform="translate(1177,422)"/>
<path d="M0 0 C2.57208085 2.37422848 4.5549663 4.80447667 6.5 7.6875 C19.94062207 25.60832943 45.3410689 31.75713494 65.57485962 38.48231506 C108.48926119 52.75478733 108.48926119 52.75478733 117.625 67.75 C119.92208961 73.11348753 119.67083485 79.29790375 119 85 C118.34 85.99 117.68 86.98 117 88 C116.55914063 87.6596875 116.11828125 87.319375 115.6640625 86.96875 C110.66366764 83.36693301 105.44746243 80.67378536 99.8359375 78.1875 C99.05105957 77.83957397 98.26618164 77.49164795 97.45751953 77.13317871 C88.81868192 73.38005131 79.9472304 70.41979532 71 67.5 C61.2407202 64.31520445 51.63052537 61.01039421 42.234375 56.85546875 C41.50581299 56.53425049 40.77725098 56.21303223 40.02661133 55.88208008 C33.52048601 52.9307387 27.73781437 49.26848751 22 45 C21.10087891 44.37544922 21.10087891 44.37544922 20.18359375 43.73828125 C11.9841772 37.63688774 7.97034979 28.43849467 5 19 C4.58621094 17.83984375 4.58621094 17.83984375 4.1640625 16.65625 C2.22190003 11.1951199 1.01189366 5.7023184 0 0 Z " fill="#020202" transform="translate(582,391)"/>
<path d="M0 0 C2.97 0 5.94 0 9 0 C8.125 4.75 8.125 4.75 7 7 C9.64 7 12.28 7 15 7 C13.74904918 13.20212416 12.0856562 19.1223584 10.015625 25.09765625 C9.72352142 25.95299454 9.43141785 26.80833282 9.13046265 27.68959045 C8.17516104 30.48225079 7.21276398 33.27240441 6.25 36.0625 C5.57703415 38.02383074 4.90434952 39.985258 4.23193359 41.94677734 C-1.64864457 59.07617883 -7.63219403 76.1695458 -13.63540649 93.25627136 C-17.46299389 104.15723621 -21.2296881 115.07909656 -25 126 C-32.59 126 -40.18 126 -48 126 C-48.495 123.03 -48.495 123.03 -49 120 C-50.65 120 -52.3 120 -54 120 C-54.66 117.69 -55.32 115.38 -56 113 C-50.39 113 -44.78 113 -39 113 C-38.566875 111.35 -38.13375 109.7 -37.6875 108 C-36.63804894 104.00209119 -35.33525395 100.1843554 -33.85864258 96.32470703 C-31.71873133 90.53106617 -29.87805474 84.62613002 -27.9609375 78.75585938 C-26.59286883 74.60726946 -25.23133549 70.53477554 -23.49609375 66.5234375 C-20.86529693 60.32767058 -19.04383728 53.84706569 -17.04882812 47.42382812 C-15.21926008 41.60375712 -13.22963661 35.93509431 -10.90844727 30.29370117 C-9.54803834 26.85886057 -8.48387367 23.3532594 -7.4375 19.8125 C-5.92307907 14.69945509 -4.16930324 9.87497267 -2 5 C-1.32723284 3.3357865 -0.65793165 1.67013418 0 0 Z " fill="#020202" transform="translate(472,315)"/>
<path d="M0 0 C1.134375 0.020625 2.26875 0.04125 3.4375 0.0625 C3.4375 2.3725 3.4375 4.6825 3.4375 7.0625 C4.7575 7.0625 6.0775 7.0625 7.4375 7.0625 C7.46435412 9.37493792 7.48382841 11.6874627 7.5 14 C7.51160156 15.28777344 7.52320313 16.57554687 7.53515625 17.90234375 C7.4375 21.0625 7.4375 21.0625 6.4375 22.0625 C-5.4425 22.0625 -17.3225 22.0625 -29.5625 22.0625 C-29.5625 56.3825 -29.5625 90.7025 -29.5625 126.0625 C-34.8425 126.0625 -40.1225 126.0625 -45.5625 126.0625 C-45.5625 124.0825 -45.5625 122.1025 -45.5625 120.0625 C-47.8725 120.0625 -50.1825 120.0625 -52.5625 120.0625 C-52.5625 117.7525 -52.5625 115.4425 -52.5625 113.0625 C-49.5925 113.0625 -46.6225 113.0625 -43.5625 113.0625 C-43.5625 78.4125 -43.5625 43.7625 -43.5625 8.0625 C-30.6925 8.0625 -17.8225 8.0625 -4.5625 8.0625 C-4.5625 5.7525 -4.5625 3.4425 -4.5625 1.0625 C-3.5625 0.0625 -3.5625 0.0625 0 0 Z " fill="#050505" transform="translate(169.5625,314.9375)"/>
<path d="M0 0 C14.85 0 29.7 0 45 0 C43 5 43 5 40 8 C44.29 8.33 48.58 8.66 53 9 C51.9097182 13.36112722 50.49903587 15.24095275 47.6875 18.6875 C46.51767578 20.14736328 46.51767578 20.14736328 45.32421875 21.63671875 C42.85064641 24.15186373 42.3300844 24.49855186 39 25 C36.68199337 25.01570035 34.36325103 24.96724262 32.046875 24.87890625 C31.05654266 24.84348976 31.05654266 24.84348976 30.04620361 24.80735779 C27.947231 24.7310719 25.84866051 24.64689847 23.75 24.5625 C22.32293603 24.5092441 20.89585272 24.45650396 19.46875 24.40429688 C15.97892267 24.27550501 12.48941202 24.13963981 9 24 C9 24.66 9 25.32 9 26 C23.85 26 38.7 26 54 26 C52.32940614 29.34118771 50.72827984 31.79413507 48.4375 34.6875 C47.81746094 35.47511719 47.19742187 36.26273438 46.55859375 37.07421875 C45 39 45 39 44 40 C42.61839885 40.0927833 41.23211962 40.11747043 39.84741211 40.11352539 C38.96657455 40.11344986 38.085737 40.11337433 37.1782074 40.11329651 C36.22092239 40.10813522 35.26363739 40.10297394 34.27734375 40.09765625 C33.30213272 40.0962413 32.32692169 40.09482635 31.32215881 40.09336853 C28.19390857 40.08775133 25.06572877 40.07519593 21.9375 40.0625 C19.82226666 40.05748722 17.70703219 40.05292393 15.59179688 40.04882812 C10.39448199 40.03862531 5.19732025 40.01905331 0 40 C0 26.8 0 13.6 0 0 Z " fill="#ADBC9E" transform="translate(995,486)"/>
<path d="M0 0 C16.5 0 33 0 50 0 C49 2 48 4 47 6 C49.475 6.495 49.475 6.495 52 7 C51.4887988 11.50343911 49.82478642 13.87525426 46.9375 17.3125 C45.83728516 18.63701172 45.83728516 18.63701172 44.71484375 19.98828125 C44.14894531 20.65214844 43.58304688 21.31601562 43 22 C44.98 22.33 46.96 22.66 49 23 C48.24262429 27.71210231 47.082486 30.79646424 43.83544922 34.328125 C36.98208873 38.36909389 27.77963401 37.08207638 20.0625 37 C18.11912216 37.00809673 16.17575574 37.01977841 14.23242188 37.03515625 C9.4860523 37.07162004 4.74846762 37.03402395 0 37 C0 24.79 0 12.58 0 0 Z " fill="#AEBC9E" transform="translate(995,436)"/>
<path d="M0 0 C0.495 1.98 0.495 1.98 1 4 C1.99 4 2.98 4 4 4 C4 5.65 4 7.3 4 9 C5.32 9 6.64 9 8 9 C8 13.95 8 18.9 8 24 C-4.54 24 -17.08 24 -30 24 C-29.99214478 28.62696899 -29.99214478 28.62696899 -29.98413086 33.34741211 C-29.96759698 43.51348243 -29.95652959 53.67955333 -29.94818783 63.84563351 C-29.94295842 70.0122492 -29.93585973 76.17885118 -29.92456055 82.34545898 C-29.91373371 88.29116006 -29.9077236 94.23684789 -29.90512276 100.18255806 C-29.90326814 102.45646943 -29.89964683 104.73038004 -29.89426994 107.00428581 C-29.88706222 110.1772712 -29.88600894 113.35020117 -29.88647461 116.52319336 C-29.88287933 117.47337341 -29.87928406 118.42355347 -29.87557983 119.40252686 C-29.88594784 125.88594784 -29.88594784 125.88594784 -31 127 C-33.53049402 127.07313567 -36.03304837 127.09247527 -38.5625 127.0625 C-39.27341797 127.05798828 -39.98433594 127.05347656 -40.71679688 127.04882812 C-42.47790013 127.03700864 -44.23896036 127.01907263 -46 127 C-46 125.35 -46 123.7 -46 122 C-47.32 122 -48.64 122 -50 122 C-50 120.35 -50 118.7 -50 117 C-46.37 117 -42.74 117 -39 117 C-39 82.68 -39 48.36 -39 13 C-26.13 13 -13.26 13 0 13 C0 8.71 0 4.42 0 0 Z " fill="#060606" transform="translate(832,423)"/>
<path d="M0 0 C8.51176218 6.91580677 16.42254659 13.64852155 18 25 C18.87606692 36.58911385 18.29291917 46.94059879 10.73046875 56.18359375 C5.57305421 61.59713271 0.12354066 64.82671641 -7 67 C-7.99 67 -8.98 67 -10 67 C-5.92667396 73.19421142 -1.85135809 79.38711012 2.2253418 85.57910156 C3.61186811 87.6855706 4.99793915 89.79233939 6.38354492 91.89941406 C8.37559214 94.92852492 10.36927576 97.95655298 12.36328125 100.984375 C12.98213699 101.92617615 13.60099274 102.86797729 14.23860168 103.83831787 C14.8189769 104.71892883 15.39935211 105.59953979 15.99731445 106.50683594 C16.5058345 107.27960876 17.01435455 108.05238159 17.5382843 108.84857178 C18.53782643 110.31974921 19.59129453 111.75531818 20.68766785 113.15582275 C22 115 22 115 22 117 C19.24835568 117.13517903 16.50335479 117.23415251 13.75 117.3125 C12.97269531 117.35439453 12.19539063 117.39628906 11.39453125 117.43945312 C9.16050083 117.48718882 7.18765969 117.46248432 5 117 C2.6171875 114.609375 2.6171875 114.609375 1 112 C0.13375 111.319375 -0.7325 110.63875 -1.625 109.9375 C-4 108 -4 108 -6 104 C-1.38 104 3.24 104 8 104 C1.01784445 92.6767568 -6.21620796 81.5480261 -13.625 70.5 C-14.63954335 68.98322034 -15.65386718 67.46629382 -16.66796875 65.94921875 C-19.10946731 62.29779158 -21.55387397 58.64832862 -24 55 C-21.32265992 53.21510661 -19.36673972 52.39124175 -16.375 51.375 C-8.82221548 48.38259561 -2.89189937 43.67896119 0.5 36.1875 C1.02945897 34.8025726 1.53363341 33.40742776 2 32 C2.33 31.01 2.66 30.02 3 29 C3.25383665 25.79627378 3.23134838 22.58774178 3.25 19.375 C3.270625 18.51003906 3.29125 17.64507812 3.3125 16.75390625 C3.34914991 10.64253445 2.28597881 5.66322804 0 0 Z " fill="#030303" transform="translate(259,324)"/>
<path d="M0 0 C17.82 0 35.64 0 54 0 C58 11 58 11 58 14 C43.48 14.33 28.96 14.66 14 15 C9.71 26.22 5.42 37.44 1 49 C-4.61 49 -10.22 49 -16 49 C-15.67 47.35 -15.34 45.7 -15 44 C-17.31 43.67 -19.62 43.34 -22 43 C-21.125 37.125 -21.125 37.125 -20 36 C-17.66702567 35.95907063 -15.33294775 35.95758277 -13 36 C-12.84362061 35.43619629 -12.68724121 34.87239258 -12.52612305 34.29150391 C-10.37565299 26.816096 -7.64160239 19.61613847 -4.8125 12.375 C-2.4303125 6.249375 -2.4303125 6.249375 0 0 Z " fill="#040404" transform="translate(302,392)"/>
<path d="M0 0 C17.49 0 34.98 0 53 0 C57 9 57 9 58 14 C43.15 14 28.3 14 13 14 C12.01 17.3 11.02 20.6 10 24 C9.28214738 26.07239208 8.54342528 28.13781424 7.7734375 30.19140625 C7.3815625 31.23748047 6.9896875 32.28355469 6.5859375 33.36132812 C6.18632812 34.41771484 5.78671875 35.47410156 5.375 36.5625 C4.96765625 37.65369141 4.5603125 38.74488281 4.140625 39.86914062 C1.12953453 47.87046547 1.12953453 47.87046547 0 49 C-2.69654854 49.07319621 -5.36691458 49.09242537 -8.0625 49.0625 C-9.20041992 49.05573242 -9.20041992 49.05573242 -10.36132812 49.04882812 C-12.24091871 49.0370068 -14.12046899 49.01907078 -16 49 C-15.67 47.35 -15.34 45.7 -15 44 C-18.96 43.505 -18.96 43.505 -23 43 C-22.34 40.69 -21.68 38.38 -21 36 C-18.36 36 -15.72 36 -13 36 C-12.87625 34.824375 -12.87625 34.824375 -12.75 33.625 C-11.96616984 29.83648757 -10.72711724 26.62129638 -9.24609375 23.0625 C-7.42721987 18.59228958 -5.77083322 14.06341988 -4.10668945 9.53369141 C-2.88477987 6.23788378 -1.57579062 3.15158124 0 0 Z " fill="#040404" transform="translate(490,392)"/>
<path d="M0 0 C4.86145277 1.55719966 9.60360228 3.11924012 14.1875 5.390625 C15.11554443 5.84469727 16.04358887 6.29876953 16.99975586 6.76660156 C17.98983643 7.25612305 18.97991699 7.74564453 20 8.25 C29.91035013 13.07981706 39.88899663 17.7171032 49.9375 22.25 C61.34095739 27.39864041 72.69048278 32.64820828 84 38 C99.35195628 45.26164256 114.79103602 52.31937558 130.26708984 59.31201172 C135.86993122 61.84421674 141.46598398 64.39135401 147.0625 66.9375 C148.82418714 67.73835079 150.585902 68.53914061 152.34765625 69.33984375 C153.56510417 69.89322917 154.78255208 70.44661458 156 71 C155.01 72.98 155.01 72.98 154 75 C149.09360077 74.43208394 145.09110783 72.86113673 140.69921875 70.7109375 C139.64823502 70.20837685 139.64823502 70.20837685 138.57601929 69.69566345 C137.065762 68.97279084 135.55707965 68.24662035 134.04983521 67.51748657 C130.00169578 65.55970136 125.94182371 63.62652406 121.8828125 61.69140625 C121.05429276 61.29573959 120.22577301 60.90007294 119.37214661 60.49241638 C111.31825885 56.65518827 103.19759079 52.97350995 95.0625 49.3125 C83.39866416 44.05512448 71.84747781 38.60151145 60.3449707 33.00073242 C50.77900229 28.35008375 41.13510469 23.89114058 31.453125 19.48828125 C23.93327379 16.06762706 16.46445562 12.53953127 9 9 C9.00507568 9.88051025 9.01015137 10.76102051 9.01538086 11.66821289 C9.04476112 20.85823821 8.90129776 30.03266225 8.62768555 39.21850586 C8.56183836 41.46002286 8.50248603 43.70165616 8.44335938 45.94335938 C8.40143285 47.39844882 8.35912894 48.85352746 8.31640625 50.30859375 C8.27974854 51.59564209 8.24309082 52.88269043 8.20532227 54.20874023 C7.54938148 66.32063619 7.54938148 66.32063619 3 71 C2.278125 71.763125 1.55625 72.52625 0.8125 73.3125 C-1 75 -1 75 -2 75 C-2.3702865 49.94584607 -1.29480553 25.01626276 0 0 Z " fill="#3E6A27" transform="translate(1028,314)"/>
<path d="M0 0 C1.65 0 3.3 0 5 0 C5 1.65 5 3.3 5 5 C6.32 5 7.64 5 9 5 C9.02332961 20.23763064 9.04097948 35.47526046 9.05181217 50.71290493 C9.056975 57.78753187 9.06401744 64.86214774 9.07543945 71.93676758 C9.08644681 78.75778878 9.09227618 85.57879844 9.09487724 92.39982796 C9.09673205 95.00866948 9.1003537 97.61751033 9.10573006 100.22634697 C9.11293643 103.86632552 9.11399111 107.50625575 9.11352539 111.14624023 C9.11712067 112.23668137 9.12071594 113.3271225 9.12442017 114.4506073 C9.1230455 115.43643799 9.12167084 116.42226868 9.12025452 117.43797302 C9.12117631 118.29984946 9.1220981 119.1617259 9.12304783 120.04971981 C9 122 9 122 8 123 C0.82623952 123.93840027 -8.48963998 125.04533172 -14.8828125 121.3203125 C-17.63608446 118.17536168 -19 116.23285781 -19 112 C-12.73 112 -6.46 112 0 112 C0 75.04 0 38.08 0 0 Z " fill="#060606" transform="translate(1160,427)"/>
<path d="M0 0 C1.32 0 2.64 0 4 0 C4 1.65 4 3.3 4 5 C5.32 5 6.64 5 8 5 C8.02332961 20.23763064 8.04097948 35.47526046 8.05181217 50.71290493 C8.056975 57.78753187 8.06401744 64.86214774 8.07543945 71.93676758 C8.08644681 78.75778878 8.09227618 85.57879844 8.09487724 92.39982796 C8.09673205 95.00866948 8.1003537 97.61751033 8.10573006 100.22634697 C8.11293643 103.86632552 8.11399111 107.50625575 8.11352539 111.14624023 C8.11712067 112.23668137 8.12071594 113.3271225 8.12442017 114.4506073 C8.1230455 115.43643799 8.12167084 116.42226868 8.12025452 117.43797302 C8.12117631 118.29984946 8.1220981 119.1617259 8.12304783 120.04971981 C8 122 8 122 7 123 C4.64686445 123.07271741 2.29166332 123.08370868 -0.0625 123.0625 C-1.99802734 123.04896484 -1.99802734 123.04896484 -3.97265625 123.03515625 C-4.97167969 123.02355469 -5.97070312 123.01195312 -7 123 C-7.495 120.525 -7.495 120.525 -8 118 C-9.32 118 -10.64 118 -12 118 C-12.042721 116.33388095 -12.04063832 114.66617115 -12 113 C-11 112 -11 112 -8.71484375 111.90234375 C-7.79832031 111.91394531 -6.88179687 111.92554688 -5.9375 111.9375 C-4.55884766 111.95103516 -4.55884766 111.95103516 -3.15234375 111.96484375 C-2.08693359 111.98224609 -2.08693359 111.98224609 -1 112 C-1.00092179 111.42885751 -1.00184359 110.85771502 -1.00279331 110.26926517 C-1.02484956 96.39084823 -1.04134829 82.51243434 -1.05181217 68.63400364 C-1.05697489 61.92258132 -1.06401713 55.21117068 -1.07543945 48.49975586 C-1.08626565 42.02886264 -1.09227626 35.55798158 -1.09487724 29.08708 C-1.09673198 26.61221055 -1.1003535 24.1373418 -1.10573006 21.66247749 C-1.11293693 18.20929627 -1.11399109 14.75616599 -1.11352539 11.30297852 C-1.11712067 10.26864182 -1.12071594 9.23430511 -1.12442017 8.16862488 C-1.1230455 7.23327911 -1.12167084 6.29793335 -1.12025452 5.33424377 C-1.12117631 4.5166134 -1.1220981 3.69898302 -1.12304783 2.85657597 C-1 1 -1 1 0 0 Z " fill="#0B0B0B" transform="translate(858,427)"/>
<path d="M0 0 C1.32 0 2.64 0 4 0 C4.66 2.31 5.32 4.62 6 7 C6.77844269 7.07475052 7.55688538 7.14950104 8.35891724 7.22651672 C11 8 11 8 12.2975769 9.87663269 C12.61429352 10.7013356 12.93101013 11.52603851 13.25732422 12.37573242 C13.62951584 13.31549423 14.00170746 14.25525604 14.38517761 15.22349548 C14.96408501 16.77382225 14.96408501 16.77382225 15.5546875 18.35546875 C15.97321487 19.42781265 16.39174225 20.50015656 16.82295227 21.60499573 C18.19221953 25.12561429 19.53343259 28.6562441 20.875 32.1875 C21.81483335 34.61762858 22.75665855 37.04698773 23.70043945 39.47558594 C25.59404535 44.35499309 27.47778382 49.23801895 29.35302734 54.12451172 C32.60174171 62.58040809 35.92705296 71.00524091 39.26663208 79.42556763 C40.17900736 81.72856308 41.08805057 84.03284369 41.99584961 86.33764648 C44.68806493 93.17186099 47.39392372 99.99998011 50.140625 106.8125 C50.61733643 107.99618164 51.09404785 109.17986328 51.58520508 110.39941406 C52.45678637 112.55893414 53.33139411 114.71723643 54.2097168 116.87402344 C54.58265869 117.79731445 54.95560059 118.72060547 55.33984375 119.671875 C55.66331787 120.4669043 55.98679199 121.26193359 56.32006836 122.08105469 C57 124 57 124 57 126 C51.39 126 45.78 126 40 126 C39.34 124.35 38.68 122.7 38 121 C37.0409375 120.814375 37.0409375 120.814375 36.0625 120.625 C35.381875 120.41875 34.70125 120.2125 34 120 C32.25 116.4375 32.25 116.4375 31 113 C34.96 113 38.92 113 43 113 C42.64808594 112.12601562 42.29617188 111.25203125 41.93359375 110.3515625 C38.85024097 102.67762846 35.81575184 94.98624058 32.82470703 87.27587891 C30.33058736 80.84668336 27.82437337 74.42227998 25.3125 68 C24.75985474 66.58557617 24.75985474 66.58557617 24.19604492 65.14257812 C22.5041142 60.81794979 20.80298318 56.49754615 19.07421875 52.1875 C16.02794109 44.59018404 13.05432068 36.964153 10.06640625 29.34375 C5.63071461 17.84533494 5.63071461 17.84533494 0.88867188 6.47265625 C0 4 0 4 0 0 Z " fill="#030303" transform="translate(341,315)"/>
<path d="M0 0 C4.475625 -0.20625 8.95125 -0.4125 13.5625 -0.625 C14.96056885 -0.71604004 16.3586377 -0.80708008 17.79907227 -0.90087891 C26.76477134 -1.1009053 26.76477134 -1.1009053 30.42919922 2.16503906 C32.90913854 5.65203783 34.64806455 8.94419365 36 13 C28.74 13 21.48 13 14 13 C14 29.17 14 45.34 14 62 C8.72 62 3.44 62 -2 62 C-2 60.02 -2 58.04 -2 56 C-3.98 56 -5.96 56 -8 56 C-8 53.69 -8 51.38 -8 49 C-5.36 49 -2.72 49 0 49 C0 32.83 0 16.66 0 0 Z " fill="#040404" transform="translate(191,379)"/>
<path d="M0 0 C2.375 0.1875 2.375 0.1875 5 1 C5.70211894 2.65204456 6.36971413 4.31923769 7 6 C7.63615234 6.12971191 8.27230469 6.25942383 8.92773438 6.39306641 C11 7 11 7 12.14648438 8.78271484 C12.45908203 9.58402832 12.77167969 10.3853418 13.09375 11.2109375 C13.66367676 12.63756714 13.66367676 12.63756714 14.24511719 14.09301758 C14.65922852 15.17607178 15.07333984 16.25912598 15.5 17.375 C16.18690918 19.11463013 16.18690918 19.11463013 16.88769531 20.8894043 C17.9689631 23.6286028 19.03931132 26.37180376 20.10351562 29.11767578 C22.26389594 34.68865918 24.45274588 40.24836491 26.640625 45.80859375 C29.64972995 53.46004898 32.65130717 61.11438144 35.64398193 68.77227783 C39.27810998 78.07100202 42.92939557 87.36224132 46.625 96.63671875 C47.33236817 98.41495315 48.03972528 100.19319194 48.74707031 101.97143555 C49.73928527 104.46515107 50.73319136 106.9581167 51.73278809 109.44888306 C52.63353422 111.69336854 53.52828413 113.9401584 54.421875 116.1875 C54.81874512 117.16809639 54.81874512 117.16809639 55.22363281 118.16850281 C56.32669293 120.9568902 57 122.96761127 57 126 C51.72 126 46.44 126 41 126 C40.34 124.02 39.68 122.04 39 120 C37.35 120 35.7 120 34 120 C33.34 117.69 32.68 115.38 32 113 C35.96 113 39.92 113 44 113 C43.12214844 110.87691406 43.12214844 110.87691406 42.2265625 108.7109375 C35.07428938 91.32176838 28.20050559 73.82839505 21.37158203 56.31005859 C17.29511509 45.85384235 13.19404046 35.40969316 9 25 C6.72293797 19.34383473 4.46836122 13.67950184 2.25 8 C1.82203125 6.906875 1.3940625 5.81375 0.953125 4.6875 C0 2 0 2 0 0 Z " fill="#010101" transform="translate(528,315)"/>
<path d="M0 0 C1.32 0 2.64 0 4 0 C4 1.65 4 3.3 4 5 C5.32 5 6.64 5 8 5 C8 43.94 8 82.88 8 123 C1.07 123 -5.86 123 -13 123 C-13.66 121.35 -14.32 119.7 -15 118 C-15.99 117.67 -16.98 117.34 -18 117 C-18.33 115.68 -18.66 114.36 -19 113 C-12.73 113 -6.46 113 0 113 C0 75.71 0 38.42 0 0 Z " fill="#000000" transform="translate(964,427)"/>
<path d="M0 0 C9.095625 -0.0928125 9.095625 -0.0928125 18.375 -0.1875 C20.26782715 -0.21481201 22.1606543 -0.24212402 24.11083984 -0.27026367 C34.63419453 -0.35925018 44.90457882 -0.30091031 53.66015625 6.39453125 C56.19855659 9.4361713 56.58967728 13.15636472 57 17 C56.505 16.01 56.505 16.01 56 15 C42.14 14.67 28.28 14.34 14 14 C14 23.24 14 32.48 14 42 C9.38 42 4.76 42 0 42 C0 28.14 0 14.28 0 0 Z " fill="#070707" transform="translate(191,323)"/>
<path d="M0 0 C1.32 0 2.64 0 4 0 C4 1.65 4 3.3 4 5 C5.32 5 6.64 5 8 5 C8 43.94 8 82.88 8 123 C3.05 123 -1.9 123 -7 123 C-7.495 120.525 -7.495 120.525 -8 118 C-9.32 117.67 -10.64 117.34 -12 117 C-11.67 115.68 -11.34 114.36 -11 113 C-7.37 113 -3.74 113 0 113 C0 75.71 0 38.42 0 0 Z " fill="#000000" transform="translate(1192,427)"/>
<path d="M0 0 C2.11306359 0.63790599 4.2185168 1.3020056 6.3125 2 C5.95845533 7.35113224 2.94622235 10.16100649 -0.5 13.9375 C-1.68925281 15.27433875 -2.87804444 16.61158789 -4.06640625 17.94921875 C-4.6711377 18.62388184 -5.27586914 19.29854492 -5.89892578 19.99365234 C-8.61879379 23.04468637 -11.28083722 26.14394073 -13.9375 29.25 C-14.43330566 29.8277417 -14.92911133 30.4054834 -15.43994141 31.00073242 C-18.47087583 34.54252677 -21.43979801 38.12805231 -24.375 41.75 C-27.96514039 46.17113129 -31.70514785 50.42223255 -35.5390625 54.6328125 C-38.1914512 57.5552626 -40.78599436 60.52535115 -43.375 63.50390625 C-44.12299316 64.35652941 -44.88548378 65.19798378 -45.6875 66 C-48.55017567 66.07325168 -51.388219 66.09238205 -54.25 66.0625 C-55.05630859 66.05798828 -55.86261719 66.05347656 -56.69335938 66.04882812 C-58.69143756 66.03700518 -60.68947783 66.01906914 -62.6875 66 C-63.0175 65.01 -63.3475 64.02 -63.6875 63 C-65.0075 63 -66.3275 63 -67.6875 63 C-67.3575 61.35 -67.0275 59.7 -66.6875 58 C-62.0675 58 -57.4475 58 -52.6875 58 C-52.0275 56.68 -51.3675 55.36 -50.6875 54 C-49.81861105 52.86262387 -48.90850587 51.75583538 -47.96484375 50.6796875 C-47.16385254 49.76074707 -47.16385254 49.76074707 -46.34667969 48.82324219 C-45.49444824 47.8588623 -45.49444824 47.8588623 -44.625 46.875 C-43.74763184 45.87194824 -43.74763184 45.87194824 -42.85253906 44.84863281 C-39.58155492 41.11780685 -36.2736592 37.42272748 -32.9375 33.75 C-29.92989392 30.43560714 -27.06320304 27.04340917 -24.25 23.5625 C-20.32896941 18.71605136 -16.2162782 14.09340992 -11.96875 9.53125 C-9.99743023 7.34389518 -8.25789961 5.10633353 -6.5 2.75 C-3.6875 0 -3.6875 0 0 0 Z " fill="#407125" transform="translate(1083.6875,347)"/>
<path d="M0 0 C3.00117879 1.5005894 3.59903432 3.83882403 5.0625 6.8125 C5.58972656 7.87082031 6.11695313 8.92914063 6.66015625 10.01953125 C9.04169294 15.31723532 9.14335406 20.03365086 9.12939453 25.79174805 C9.13114685 26.67830078 9.13289917 27.56485352 9.13470459 28.47827148 C9.13910304 31.40610719 9.13619291 34.33388244 9.1328125 37.26171875 C9.13348593 39.29384879 9.13445629 41.32597875 9.13571167 43.35810852 C9.13718577 47.61415373 9.13504262 51.87017794 9.13037109 56.1262207 C9.1246631 61.5942765 9.12796139 67.06228332 9.13394356 72.53033733 C9.13754765 76.72433342 9.13641148 80.91831779 9.13381577 85.11231422 C9.13314664 87.12944354 9.13397443 89.14657391 9.13629532 91.16370201 C9.13882052 93.97464212 9.13498364 96.78550149 9.12939453 99.59643555 C9.13141876 100.4374733 9.13344299 101.27851105 9.13552856 102.14503479 C9.11426474 107.88573526 9.11426474 107.88573526 8 109 C5.46950598 109.07313567 2.96695163 109.09247527 0.4375 109.0625 C-0.27341797 109.05798828 -0.98433594 109.05347656 -1.71679688 109.04882812 C-3.47790013 109.03700864 -5.23896036 109.01907263 -7 109 C-7 107.35 -7 105.7 -7 104 C-8.32 104 -9.64 104 -11 104 C-11.042721 102.33388095 -11.04063832 100.66617115 -11 99 C-10.505 98.505 -10.505 98.505 -10 98 C-6.7 98 -3.4 98 0 98 C0 65.66 0 33.32 0 0 Z " fill="#090909" transform="translate(1085,441)"/>
<path d="M0 0 C7.67734874 7.67734874 8.53371465 15.24140106 8.58021832 25.68317986 C8.56605558 28.70842063 8.52758627 31.73280252 8.48828125 34.7578125 C8.47894379 36.87343507 8.47183209 38.98906852 8.46684265 41.10470581 C8.4478464 46.64512524 8.39880931 52.18487851 8.34332275 57.72503662 C8.29197077 63.38951611 8.26929464 69.05410432 8.24414062 74.71875 C8.1906833 85.81279102 8.10546032 96.90633989 8 108 C3.05 108 -1.9 108 -7 108 C-7 106.35 -7 104.7 -7 103 C-8.32 103 -9.64 103 -11 103 C-11 101.35 -11 99.7 -11 98 C-7.37 98 -3.74 98 0 98 C0 65.66 0 33.32 0 0 Z " fill="#040404" transform="translate(889,442)"/>
<path d="M0 0 C3.30295163 0.25236285 6.54804457 0.62607367 9.8125 1.1875 C9.1525 2.5075 8.4925 3.8275 7.8125 5.1875 C9.7925 5.1875 11.7725 5.1875 13.8125 5.1875 C13.8125 6.1775 13.8125 7.1675 13.8125 8.1875 C13.1525 8.5175 12.4925 8.8475 11.8125 9.1875 C13.7925 9.5175 15.7725 9.8475 17.8125 10.1875 C16.38159959 13.42057612 14.62194011 15.67391626 12.1875 18.2265625 C11.12789062 19.34417969 11.12789062 19.34417969 10.046875 20.484375 C9.30953125 21.25265625 8.5721875 22.0209375 7.8125 22.8125 C6.70648437 23.97652344 6.70648437 23.97652344 5.578125 25.1640625 C3.01171592 27.86160197 0.44534691 30.55465309 -2.1875 33.1875 C-5.2265625 33.1640625 -5.2265625 33.1640625 -8.8125 32.8125 C-10.00101563 32.70164062 -11.18953125 32.59078125 -12.4140625 32.4765625 C-13.32929687 32.38117188 -14.24453125 32.28578125 -15.1875 32.1875 C-14.8575 31.1975 -14.5275 30.2075 -14.1875 29.1875 C-15.8375 29.1875 -17.4875 29.1875 -19.1875 29.1875 C-18.8575 27.5375 -18.5275 25.8875 -18.1875 24.1875 C-19.8375 24.1875 -21.4875 24.1875 -23.1875 24.1875 C-20.21857204 11.11379968 -14.67019491 -0.70515559 0 0 Z " fill="#050505" transform="translate(866.1875,390.8125)"/>
<path d="M0 0 C0.66 0 1.32 0 2 0 C2.48919922 1.39412109 2.48919922 1.39412109 2.98828125 2.81640625 C3.64376953 4.67072266 3.64376953 4.67072266 4.3125 6.5625 C4.5381665 7.20856201 4.76383301 7.85462402 4.99633789 8.52026367 C6.13374559 11.73743294 7.34371184 14.79722511 8.9375 17.8125 C11.53675876 25.61027627 6.33512991 34.7765245 3.4375 42 C3.02564453 43.04800781 2.61378906 44.09601563 2.18945312 45.17578125 C-0.85226739 52.85226739 -0.85226739 52.85226739 -2 54 C-3.34267413 54.08631874 -4.68974322 54.10706473 -6.03515625 54.09765625 C-6.84404297 54.09443359 -7.65292969 54.09121094 -8.48632812 54.08789062 C-9.33646484 54.07951172 -10.18660156 54.07113281 -11.0625 54.0625 C-11.91650391 54.05798828 -12.77050781 54.05347656 -13.65039062 54.04882812 C-15.76695663 54.03700373 -17.88348685 54.01906769 -20 54 C-19.36763384 48.32380234 -17.37109459 43.43469529 -15.25390625 38.18359375 C-14.88273178 37.24951187 -14.51155731 36.31542999 -14.12913513 35.3530426 C-12.94582838 32.37893876 -11.75429841 29.4082098 -10.5625 26.4375 C-9.76442867 24.43576419 -8.96689684 22.4338132 -8.16992188 20.43164062 C-6.11980188 15.28513789 -4.06138288 10.1419996 -2 5 C-1.33317519 3.3333966 -0.66640746 1.66677032 0 0 Z " fill="#060606" transform="translate(328,325)"/>
<path d="M0 0 C3.03676917 3.52921822 4.57723944 7.506544 6.1875 11.8125 C6.46013672 12.49892578 6.73277344 13.18535156 7.01367188 13.89257812 C7.27083984 14.57384766 7.52800781 15.25511719 7.79296875 15.95703125 C8.0252417 16.56522705 8.25751465 17.17342285 8.49682617 17.80004883 C9.82762512 23.61850073 8.87180051 28.1794738 6.59375 33.58984375 C6.09746094 34.78544922 5.60117187 35.98105469 5.08984375 37.21289062 C4.56016436 38.45454167 4.03021308 39.69607676 3.5 40.9375 C2.96891868 42.20590625 2.43895984 43.47478309 1.91015625 44.74414062 C0.61779422 47.83406076 -0.68963761 50.91767028 -2 54 C-7.94 54 -13.88 54 -20 54 C-19.04981255 49.24906277 -17.72694543 44.98700674 -16.125 40.4375 C-15.68003174 39.16942505 -15.68003174 39.16942505 -15.22607422 37.87573242 C-12.3500868 29.79376179 -9.25638858 21.79801328 -6.125 13.8125 C-5.87848694 13.1820578 -5.63197388 12.5516156 -5.37799072 11.90206909 C-4.67462152 10.10657117 -3.96632424 8.31300613 -3.2578125 6.51953125 C-2.64123779 4.95875854 -2.64123779 4.95875854 -2.01220703 3.36645508 C-1 1 -1 1 0 0 Z " fill="#050505" transform="translate(516,325)"/>
<path d="M0 0 C1.65 0 3.3 0 5 0 C5.66 2.31 6.32 4.62 7 7 C8.65 7 10.3 7 12 7 C12.29543701 7.89154785 12.59087402 8.7830957 12.89526367 9.70166016 C14.05759251 13.20761144 15.2225258 16.71269402 16.3878479 20.21765137 C16.92064946 21.82164779 17.45269389 23.42589592 17.98397827 25.03039551 C21.14478648 34.57551325 24.36581282 44.0935816 27.7265625 53.5703125 C28.62868955 56.13327581 29.52981336 58.69659019 30.43081665 61.25994873 C31.01551392 62.91125153 31.6062573 64.56042675 32.20321655 66.20733643 C33.04251901 68.52378882 33.86089416 70.84674195 34.67578125 73.171875 C34.92723907 73.84759552 35.1786969 74.52331604 35.43777466 75.21951294 C38.0502974 82.81179056 36.01038115 89.49457703 34 97 C33.34 97 32.68 97 32 97 C31.74307373 96.19369141 31.48614746 95.38738281 31.22143555 94.55664062 C30.25576239 91.52943023 29.28826568 88.50281015 28.31958008 85.4765625 C27.90284695 84.17340631 27.48681499 82.87002566 27.0715332 81.56640625 C26.47016505 79.67907997 25.86595904 77.7926587 25.26171875 75.90625 C24.90037842 74.77509766 24.53903809 73.64394531 24.16674805 72.47851562 C23.34036506 70.01475652 22.48229663 67.59586976 21.55957031 65.16943359 C19.833385 60.61725728 18.30572687 56.00702712 16.78515625 51.3828125 C16.17521331 49.54033707 15.56518461 47.69789003 14.95507812 45.85546875 C14.00832735 42.99046316 13.06254763 40.12514459 12.1184082 37.25927734 C11.19754695 34.46621419 10.27281968 31.67445308 9.34765625 28.8828125 C9.07147964 28.04082306 8.79530304 27.19883362 8.51075745 26.33132935 C6.82278815 21.24632222 4.94977962 16.28282872 2.87937927 11.34054565 C1.48636677 7.63291975 0.75171964 3.88388479 0 0 Z " fill="#030303" transform="translate(390,315)"/>
<path d="M0 0 C1.09920273 0.00222061 2.19840546 0.00444122 3.33091736 0.00672913 C4.57212845 0.00680466 5.81333954 0.00688019 7.09216309 0.00695801 C8.45682311 0.01206541 9.82148274 0.01728142 11.18614197 0.02259827 C12.57476755 0.02446251 13.96339379 0.02588638 15.35202026 0.02688599 C19.01319686 0.03071065 22.67433402 0.04054048 26.335495 0.05158997 C30.06890835 0.06180519 33.80232805 0.06638384 37.53575134 0.07142639 C44.86584748 0.08216281 52.19591108 0.0992386 59.52598572 0.12025452 C58.59580046 1.58326434 57.65654545 3.04051031 56.71348572 4.49525452 C56.19141541 5.30736389 55.66934509 6.11947327 55.13145447 6.95619202 C53.52598572 9.12025452 53.52598572 9.12025452 50.52598572 11.12025452 C48.26702881 11.36076355 48.26702881 11.36076355 45.5955658 11.3473053 C44.59475479 11.34715424 43.59394379 11.34700317 42.56280518 11.34684753 C41.48460007 11.33652496 40.40639496 11.32620239 39.29551697 11.31556702 C37.63718086 11.31132217 37.63718086 11.31132217 35.94534302 11.30699158 C32.40961443 11.29578453 28.87413792 11.27067878 25.33848572 11.24525452 C22.94330708 11.2352254 20.54812448 11.22609944 18.15293884 11.21791077 C12.2772016 11.19584349 6.40161167 11.16236069 0.52598572 11.12025452 C0.52598572 9.47025452 0.52598572 7.82025452 0.52598572 6.12025452 C-0.79401428 6.12025452 -2.11401428 6.12025452 -3.47401428 6.12025452 C-3.51673528 4.45413547 -3.5146526 2.78642567 -3.47401428 1.12025452 C-2.47401428 0.12025452 -2.47401428 0.12025452 0 0 Z " fill="#0A0A0A" transform="translate(987.4740142822266,538.8797454833984)"/>
<path d="M0 0 C16.17 0 32.34 0 49 0 C47.32940614 3.34118771 45.72827984 5.79413507 43.4375 8.6875 C42.81746094 9.47511719 42.19742187 10.26273438 41.55859375 11.07421875 C40 13 40 13 39 14 C36.04294679 14.08868299 33.10934944 14.11520296 30.15234375 14.09765625 C28.82270348 14.09553383 28.82270348 14.09553383 27.46620178 14.09336853 C24.62326746 14.08775215 21.78041069 14.07519691 18.9375 14.0625 C17.01497509 14.05748711 15.09244896 14.05292384 13.16992188 14.04882812 C8.44658451 14.03777741 3.72330542 14.02050183 -1 14 C-0.67 9.38 -0.34 4.76 0 0 Z " fill="#AEBD9F" transform="translate(1000,512)"/>
<path d="M0 0 C-0.77858811 5.28026459 -2.66640885 8.81134145 -6.06689453 12.90087891 C-12.37141096 17.41280102 -20.51681435 16.03779062 -27.9375 15.6875 C-29.67502764 15.64586414 -31.41266885 15.60871226 -33.15039062 15.57617188 C-45.72086586 15.27913414 -45.72086586 15.27913414 -47 14 C-47.07258946 11.81360547 -47.08373783 9.62499611 -47.0625 7.4375 C-47.05347656 6.23996094 -47.04445313 5.04242188 -47.03515625 3.80859375 C-47.02355469 2.88175781 -47.01195312 1.95492188 -47 1 C-41.43158779 0.85644683 -35.8631472 0.71406854 -30.29467773 0.57275391 C-28.40241698 0.52457022 -26.51016422 0.47607186 -24.61791992 0.42724609 C-21.88983187 0.35690865 -19.16171661 0.28772252 -16.43359375 0.21875 C-15.17536049 0.18593933 -15.17536049 0.18593933 -13.89170837 0.15246582 C-9.25928277 0.03657867 -4.63387415 -0.02176805 0 0 Z " fill="#AEBD9F" transform="translate(1047,443)"/>
<path d="M0 0 C14.85 0 29.7 0 45 0 C42.37853239 6.55366903 42.37853239 6.55366903 39 9 C36.24913809 9.34939929 33.9116444 9.46885179 31.171875 9.390625 C30.04836639 9.38213531 30.04836639 9.38213531 28.90216064 9.37347412 C26.517448 9.35114057 24.13425592 9.30095386 21.75 9.25 C20.13023009 9.22993091 18.51043654 9.21168085 16.890625 9.1953125 C12.92650034 9.15128624 8.96350768 9.08228298 5 9 C5 13.62 5 18.24 5 23 C6.32 23.33 7.64 23.66 9 24 C9 24.66 9 25.32 9 26 C7.68 26 6.36 26 5 26 C5 30.29 5 34.58 5 39 C2.525 39.495 2.525 39.495 0 40 C0 26.8 0 13.6 0 0 Z " fill="#0D0D0D" transform="translate(995,486)"/>
<path d="M0 0 C6.08695652 0.54347826 6.08695652 0.54347826 9 2 C8.29807572 7.33462451 5.90950492 9.96433467 2.4609375 13.9453125 C0.55826364 16.30704417 -0.92649031 18.47244239 -2.4609375 21.0546875 C-7.77077578 29.48267682 -7.77077578 29.48267682 -12 32 C-18.99617258 33.26808097 -26.17933963 31.65532328 -33 30 C-33.66 28.35 -34.32 26.7 -35 25 C-34.34 24.34 -33.68 23.68 -33 23 C-30.97563632 23.11617582 -28.95453909 23.29239832 -26.9375 23.5 C-22.90321426 23.55769606 -20.76065507 23.54799881 -17.45703125 21.16796875 C-15.12573868 18.54784347 -13.05748542 15.83985648 -11 13 C-9.36348415 10.99236875 -7.71781101 8.99216285 -6.0625 7 C-5.33160156 6.0925 -4.60070313 5.185 -3.84765625 4.25 C-2 2 -2 2 0 0 Z " fill="#27401A" transform="translate(1210,383)"/>
<path d="M0 0 C16.17 0 32.34 0 49 0 C44 7 44 7 41.88017273 7.84178162 C41.18068008 7.82623734 40.48118744 7.81069305 39.76049805 7.79467773 C38.96004562 7.79414902 38.1595932 7.7936203 37.33488464 7.79307556 C36.4857399 7.75694656 35.63659515 7.72081757 34.76171875 7.68359375 C33.88095169 7.67368912 33.00018463 7.66378448 32.09272766 7.65357971 C29.2892655 7.61450214 26.48977093 7.52670142 23.6875 7.4375 C21.78325982 7.40237717 19.87895804 7.37043985 17.97460938 7.34179688 C13.31488576 7.26476274 8.65811461 7.14403277 4 7 C4.11344376 9.1464753 4.24106345 11.29220592 4.375 13.4375 C4.47941406 15.22994141 4.47941406 15.22994141 4.5859375 17.05859375 C4.72257813 18.02925781 4.85921875 18.99992187 5 20 C5.66 20.33 6.32 20.66 7 21 C7 21.66 7 22.32 7 23 C6.01 23 5.02 23 4 23 C4 26.96 4 30.92 4 35 C2.68 35 1.36 35 0 35 C0 23.45 0 11.9 0 0 Z " fill="#020302" transform="translate(996,437)"/>
<path d="M0 0 C0.70125 0.144375 1.4025 0.28875 2.125 0.4375 C-0.11177581 4.42860979 -2.77026814 7.86259348 -5.75 11.3125 C-6.22832275 11.87203369 -6.70664551 12.43156738 -7.19946289 13.00805664 C-8.75315866 14.82207843 -10.31303453 16.63059538 -11.875 18.4375 C-12.39980957 19.04480957 -12.92461914 19.65211914 -13.46533203 20.27783203 C-16.17885492 23.41505841 -18.89706044 26.54818692 -21.6171875 29.6796875 C-25.72256896 34.40953578 -29.7967495 39.16586366 -33.8671875 43.92578125 C-35.99060805 46.40825802 -38.12201774 48.8836309 -40.2578125 51.35546875 C-40.81073975 51.99669678 -41.36366699 52.6379248 -41.93334961 53.29858398 C-42.99764017 54.5325741 -44.06349202 55.76521982 -45.13110352 56.99633789 C-47.78195908 60.02334715 -47.78195908 60.02334715 -49.875 63.4375 C-55.485 63.4375 -61.095 63.4375 -66.875 63.4375 C-66.545 61.7875 -66.215 60.1375 -65.875 58.4375 C-61.255 58.4375 -56.635 58.4375 -51.875 58.4375 C-51.215 57.1175 -50.555 55.7975 -49.875 54.4375 C-49.00611105 53.30012387 -48.09600587 52.19333538 -47.15234375 51.1171875 C-46.35135254 50.19824707 -46.35135254 50.19824707 -45.53417969 49.26074219 C-44.68194824 48.2963623 -44.68194824 48.2963623 -43.8125 47.3125 C-42.93513184 46.30944824 -42.93513184 46.30944824 -42.04003906 45.28613281 C-38.76905492 41.55530685 -35.4611592 37.86022748 -32.125 34.1875 C-29.11739392 30.87310714 -26.25070304 27.48090917 -23.4375 24 C-19.51711741 19.15435229 -15.4004378 14.53566973 -11.1640625 9.96484375 C-9.19210113 7.78760995 -7.37438697 5.55899442 -5.5625 3.25 C-2.875 0.4375 -2.875 0.4375 0 0 Z " fill="#29421C" transform="translate(1082.875,346.5625)"/>
<path d="M0 0 C1.39120471 0.00015906 2.78241534 0.00585033 4.17358398 0.01586914 C4.90463852 0.01728409 5.63569305 0.01869904 6.38890076 0.02015686 C8.73253406 0.02577131 11.07607313 0.03832617 13.41967773 0.05102539 C15.00496282 0.05603853 16.59024939 0.06060176 18.17553711 0.06469727 C22.06945383 0.07574542 25.96329979 0.09301967 29.85717773 0.11352539 C29.88403712 2.25929176 29.90350861 4.40515184 29.91967773 6.55102539 C29.9312793 7.74598633 29.94288086 8.94094727 29.95483398 10.17211914 C29.85717773 13.11352539 29.85717773 13.11352539 28.85717773 14.11352539 C26.93050266 14.20100746 25.00065912 14.22049873 23.07202148 14.21118164 C21.90219727 14.20795898 20.73237305 14.20473633 19.52709961 14.20141602 C18.29540039 14.19303711 17.06370117 14.1846582 15.79467773 14.17602539 C13.94132812 14.16925781 13.94132812 14.16925781 12.05053711 14.16235352 C8.98603657 14.15052147 5.92163052 14.13403712 2.85717773 14.11352539 C2.85717773 11.80352539 2.85717773 9.49352539 2.85717773 7.11352539 C0.54717773 7.11352539 -1.76282227 7.11352539 -4.14282227 7.11352539 C-4.18536583 5.11397793 -4.18363009 3.11310903 -4.14282227 1.11352539 C-3.14282227 0.11352539 -3.14282227 0.11352539 0 0 Z " fill="#080808" transform="translate(82.142822265625,322.886474609375)"/>
<path d="M0 0 C3.30295163 0.25236285 6.54804457 0.62607367 9.8125 1.1875 C8.12899232 4.81617353 6.25175872 6.77085443 3.1875 9.375 C-0.36612757 12.43182942 -3.19801136 15.44155783 -6 19.1875 C-8.51264441 22.16640833 -9.72649205 23.08062273 -13.57421875 23.97265625 C-16.80870274 24.22092475 -19.94737513 24.31098037 -23.1875 24.1875 C-20.21857204 11.11379968 -14.67019491 -0.70515559 0 0 Z " fill="#FBFBFB" transform="translate(866.1875,390.8125)"/>
<path d="M0 0 C1.47583955 0.0001591 2.95168467 0.00585225 4.42749023 0.01586914 C5.20293686 0.01728409 5.97838348 0.01869904 6.77732849 0.02015686 C9.26361893 0.02577194 11.74982059 0.03832693 14.23608398 0.05102539 C15.91772331 0.05603845 17.59936405 0.06060169 19.28100586 0.06469727 C23.41189965 0.07574626 27.54272674 0.09302094 31.67358398 0.11352539 C31.67358398 3.41352539 31.67358398 6.71352539 31.67358398 10.11352539 C28.80339957 11.5486176 26.33814676 11.22511045 23.13452148 11.21118164 C21.83256836 11.20795898 20.53061523 11.20473633 19.18920898 11.20141602 C17.809 11.19306005 16.42879166 11.1845951 15.04858398 11.17602539 C13.66056473 11.1710104 12.27254376 11.16644749 10.88452148 11.16235352 C7.48083266 11.15053515 4.0772296 11.13405973 0.67358398 11.11352539 C0.34358398 9.46352539 0.01358398 7.81352539 -0.32641602 6.11352539 C-1.64641602 6.11352539 -2.96641602 6.11352539 -4.32641602 6.11352539 C-4.36913702 4.44740634 -4.36705434 2.77969654 -4.32641602 1.11352539 C-3.32641602 0.11352539 -3.32641602 0.11352539 0 0 Z " fill="#0C0C0C" transform="translate(747.326416015625,435.886474609375)"/>
<path d="M0 0 C0.66 0 1.32 0 2 0 C2.268125 0.598125 2.53625 1.19625 2.8125 1.8125 C3.84941005 3.99352808 3.84941005 3.99352808 5.3815918 5.30419922 C7.42855424 7.44904778 8.65785208 9.71914206 10.08203125 12.3203125 C10.67701416 13.40006348 11.27199707 14.47981445 11.88500977 15.59228516 C12.52751284 16.76985332 13.17000941 17.94742503 13.8125 19.125 C14.48369375 20.34587034 15.15549647 21.56640608 15.82788086 22.78662109 C16.86445247 24.6679452 17.90063635 26.54947173 18.93495178 28.43203735 C22.27732283 34.51516738 25.66567537 40.57212446 29.0625 46.625 C29.62654541 47.63224121 30.19059082 48.63948242 30.77172852 49.67724609 C33.4835151 54.51919869 36.20037711 59.35819607 38.9282074 64.19113159 C39.90680998 65.92553551 40.8839555 67.66076127 41.86108398 69.39599609 C43.09110867 71.58005698 44.3235704 73.76274773 45.55883789 75.94384766 C46.11176514 76.92659668 46.66469238 77.9093457 47.234375 78.921875 C47.72131836 79.78393555 48.20826172 80.64599609 48.70996094 81.53417969 C52.14571977 88.10139472 52.14571977 88.10139472 51.625 91.3125 C51.41875 91.869375 51.2125 92.42625 51 93 C44.57731047 81.71495302 38.18914061 70.41515661 32 59 C27.92105461 51.48211533 23.77727159 44.00512364 19.5625 36.5625 C19.03180908 35.62510986 18.50111816 34.68771973 17.9543457 33.72192383 C15.07599806 28.64476001 12.18581971 23.57449321 9.2890625 18.5078125 C8.68634521 17.45005615 8.08362793 16.3922998 7.46264648 15.30249023 C6.29916698 13.26084053 5.13213629 11.22120955 3.96118164 9.18383789 C3.44160889 8.27110107 2.92203613 7.35836426 2.38671875 6.41796875 C1.92483154 5.61125732 1.46294434 4.8045459 0.98706055 3.97338867 C0 2 0 2 0 0 Z " fill="#0C0C0C" transform="translate(1094,427)"/>
<path d="M0 0 C7.96150276 7.02485538 12.4018936 17.40443909 17.5 26.5625 C18.73432068 28.77346783 19.96869731 30.98440442 21.203125 33.1953125 C21.83025391 34.31969727 22.45738281 35.44408203 23.10351562 36.60253906 C25.55495194 40.99416983 28.01412848 45.38143883 30.47363281 49.76855469 C35.24318845 58.27719022 40.00627042 66.78943509 44.75 75.3125 C45.15637695 76.04138428 45.56275391 76.77026855 45.98144531 77.52124023 C51.27519186 87.04654652 51.27519186 87.04654652 51 92 C46.74158526 87.241196 44.02733698 81.73009576 41.0625 76.125 C36.69661045 67.96584711 32.26648354 59.85405914 27.6875 51.8125 C21.86035854 41.56666028 16.15103912 31.25877105 10.4675293 20.93286133 C10.14382858 20.34481216 9.82012787 19.756763 9.48661804 19.15089417 C8.55772043 17.46218497 7.63039944 15.77260884 6.703125 14.08300781 C5.62042052 12.12308922 4.52776026 10.16861258 3.421875 8.22167969 C2.73351562 7.0097998 2.73351562 7.0097998 2.03125 5.7734375 C1.63486328 5.08427246 1.23847656 4.39510742 0.83007812 3.68505859 C0 2 0 2 0 0 Z " fill="#0A0A0A" transform="translate(898,427)"/>
<path d="M0 0 C1.32 0.33 2.64 0.66 4 1 C3.29807572 6.33462451 0.90950492 8.96433467 -2.5390625 12.9453125 C-4.44173636 15.30704417 -5.92649031 17.47244239 -7.4609375 20.0546875 C-12.77077578 28.48267682 -12.77077578 28.48267682 -17 31 C-23.99617258 32.26808097 -31.17933963 30.65532328 -38 29 C-38 28.01 -38 27.02 -38 26 C-36.35064453 26.20882813 -36.35064453 26.20882813 -34.66796875 26.421875 C-25.72162353 27.22289048 -25.72162353 27.22289048 -17.73828125 23.71484375 C-15.31719873 21.2301916 -13.2416775 18.50566372 -11.22753906 15.68554688 C-10.00647651 14.00889297 -8.71582792 12.43461895 -7.3671875 10.859375 C-2.92082691 5.8788764 -2.92082691 5.8788764 0 0 Z " fill="#3F6F24" transform="translate(1215,384)"/>
<path d="M0 0 C4.80691895 0.57194624 8.77110112 2.05136945 13.09375 4.1328125 C14.09662048 4.60519852 14.09662048 4.60519852 15.11975098 5.08712769 C17.24986553 6.09281553 19.37484784 7.10887533 21.5 8.125 C22.89552682 8.78450315 24.29135803 9.44336261 25.6875 10.1015625 C34.5207266 14.27832808 43.27927284 18.59332257 52 23 C52 24.65 52 26.3 52 28 C46.21764405 25.41229632 40.44125848 22.81168779 34.66894531 20.20166016 C32.23923025 19.10771051 29.80418555 18.02681381 27.3671875 16.94921875 C26.01540493 16.34163521 24.66382838 15.73359304 23.3125 15.125 C21.51232422 14.32449219 21.51232422 14.32449219 19.67578125 13.5078125 C17 12 17 12 16 9 C14.39687599 7.85367983 14.39687599 7.85367983 12.40234375 6.95703125 C11.68369141 6.60576172 10.96503906 6.25449219 10.22460938 5.89257812 C9.46986328 5.53615234 8.71511719 5.17972656 7.9375 4.8125 C7.17888672 4.44447266 6.42027344 4.07644531 5.63867188 3.69726562 C3.76346181 2.78914503 1.88227267 1.89338985 0 1 C0 0.67 0 0.34 0 0 Z " fill="#3F6D26" transform="translate(1037,319)"/>
<path d="M0 0 C16.5 0 33 0 50 0 C50 0.33 50 0.66 50 1 C33.83 1 17.66 1 1 1 C1 12.55 1 24.1 1 36 C2.32 36 3.64 36 5 36 C5 32.04 5 28.08 5 24 C7.73106511 23.08964496 9.29893239 22.87784287 12.10424805 22.88647461 C12.92487228 22.88655014 13.74549652 22.88662567 14.59098816 22.88670349 C15.9129998 22.89444542 15.9129998 22.89444542 17.26171875 22.90234375 C18.62040825 22.90446617 18.62040825 22.90446617 20.00654602 22.90663147 C22.90023091 22.91222999 25.79383849 22.92478219 28.6875 22.9375 C30.64908742 22.94251519 32.61067606 22.94707807 34.57226562 22.95117188 C39.38154021 22.96219893 44.190757 22.97946253 49 23 C48.505 25.475 48.505 25.475 48 28 C47.505 26.515 47.505 26.515 47 25 C33.47 25 19.94 25 6 25 C6.33 28.96 6.66 32.92 7 37 C4.69 37 2.38 37 0 37 C0 24.79 0 12.58 0 0 Z " fill="#60615F" transform="translate(995,436)"/>
<path d="M0 0 C-0.375 2.4375 -0.375 2.4375 -1 5 C-1.66 5.33 -2.32 5.66 -3 6 C-2.67 4.68 -2.34 3.36 -2 2 C-16.52 2 -31.04 2 -46 2 C-46 5.63 -46 9.26 -46 13 C-33.46 13 -20.92 13 -8 13 C-8.33 13.66 -8.66 14.32 -9 15 C-14.25105442 15.02464928 -19.50207545 15.04283568 -24.75317383 15.05493164 C-26.54094021 15.05997218 -28.32870245 15.06680454 -30.11645508 15.07543945 C-32.68051168 15.0875173 -35.24451397 15.09323094 -37.80859375 15.09765625 C-39.01484657 15.10539818 -39.01484657 15.10539818 -40.24546814 15.11329651 C-42.16401715 15.11349215 -44.08245368 15.06201983 -46 15 C-47 14 -47 14 -47.09765625 11.05859375 C-47.08605469 9.86363281 -47.07445312 8.66867187 -47.0625 7.4375 C-47.05347656 6.23996094 -47.04445313 5.04242188 -47.03515625 3.80859375 C-47.02355469 2.88175781 -47.01195312 1.95492188 -47 1 C-41.43158779 0.85644683 -35.8631472 0.71406854 -30.29467773 0.57275391 C-28.40241698 0.52457022 -26.51016422 0.47607186 -24.61791992 0.42724609 C-21.88983187 0.35690865 -19.16171661 0.28772252 -16.43359375 0.21875 C-15.17536049 0.18593933 -15.17536049 0.18593933 -13.89170837 0.15246582 C-9.25928277 0.03657867 -4.63387415 -0.02176805 0 0 Z " fill="#92A389" transform="translate(1047,443)"/>
<path d="M0 0 C15.84 0 31.68 0 48 0 C47.67 0.99 47.34 1.98 47 3 C47 2.34 47 1.68 47 1 C31.82 1 16.64 1 1 1 C1 4.96 1 8.92 1 13 C13.54 13 26.08 13 39 13 C38.34 13.99 37.68 14.98 37 16 C34.40186029 16.20832779 32.06012828 16.23167871 29.47265625 16.109375 C28.72793564 16.08530579 27.98321503 16.06123657 27.21592712 16.03643799 C25.6395426 15.98274134 24.06339293 15.92173038 22.48754883 15.85400391 C20.0759884 15.75057848 17.66444617 15.66818264 15.25195312 15.58984375 C13.72130968 15.53508385 12.19070826 15.47913363 10.66015625 15.421875 C9.57723045 15.38268951 9.57723045 15.38268951 8.47242737 15.3427124 C5.42024215 15.20854641 2.91636544 14.97212181 0 14 C0 9.38 0 4.76 0 0 Z " fill="#82957E" transform="translate(1000,495)"/>
<path d="M0 0 C2.9375 0.8125 2.9375 0.8125 6 2 C6.33 2.99 6.66 3.98 7 5 C5.68 4.67 4.36 4.34 3 4 C2.14067962 7.73999633 1.85117868 11.2414466 1.79467773 15.07543945 C1.77473251 16.27630692 1.75478729 17.47717438 1.73423767 18.71443176 C1.71752518 20.00105209 1.70081268 21.28767242 1.68359375 22.61328125 C1.66300365 23.95135612 1.64200665 25.28942479 1.62062073 26.62748718 C1.56561225 30.13728794 1.51611006 33.64714532 1.46777344 37.15704346 C1.41740272 40.74341835 1.3617982 44.32971173 1.30664062 47.91601562 C1.19931897 54.9439396 1.09781707 61.97193679 1 69 C0.67 69 0.34 69 0 69 C-1.04730371 45.89525467 -0.96040987 23.10858534 0 0 Z " fill="#2C481D" transform="translate(1028,314)"/>
<path d="M0 0 C1.72447904 0.00031742 3.44897767 0.01165954 5.17333984 0.03173828 C6.53415176 0.03598312 6.53415176 0.03598312 7.92245483 0.04031372 C10.82652857 0.05152926 13.73029646 0.07663615 16.63427734 0.10205078 C18.60041873 0.11207881 20.56656494 0.12120497 22.53271484 0.12939453 C27.35835393 0.15147306 32.18376374 0.18601213 37.00927734 0.22705078 C36.67927734 1.87705078 36.34927734 3.52705078 36.00927734 5.22705078 C35.51427734 3.74205078 35.51427734 3.74205078 35.00927734 2.22705078 C21.47927734 2.22705078 7.94927734 2.22705078 -5.99072266 2.22705078 C-3.99072266 0.22705078 -3.99072266 0.22705078 0 0 Z " fill="#728B70" transform="translate(1006.99072265625,458.77294921875)"/>
<path d="M0 0 C16.17 0 32.34 0 49 0 C48.34 1.32 47.68 2.64 47 4 C46.505 2.515 46.505 2.515 46 1 C31.15 1 16.3 1 1 1 C1 4.63 1 8.26 1 12 C4.63 12 8.26 12 12 12 C12 12.33 12 12.66 12 13 C5.565 13.495 5.565 13.495 -1 14 C-0.67 9.38 -0.34 4.76 0 0 Z " fill="#91A187" transform="translate(1000,512)"/>
<path d="M0 0 C-0.375 2.4375 -0.375 2.4375 -1 5 C-1.66 5.33 -2.32 5.66 -3 6 C-2.67 4.68 -2.34 3.36 -2 2 C-16.52 2 -31.04 2 -46 2 C-46 5.96 -46 9.92 -46 14 C-46.33 14 -46.66 14 -47 14 C-47 9.71 -47 5.42 -47 1 C-41.43158779 0.85644683 -35.8631472 0.71406854 -30.29467773 0.57275391 C-28.40241698 0.52457022 -26.51016422 0.47607186 -24.61791992 0.42724609 C-21.88983187 0.35690865 -19.16171661 0.28772252 -16.43359375 0.21875 C-15.17536049 0.18593933 -15.17536049 0.18593933 -13.89170837 0.15246582 C-9.25928277 0.03657867 -4.63387415 -0.02176805 0 0 Z " fill="#87977F" transform="translate(1047,443)"/>
<path d="M0 0 C5.8641974 0.54706915 10.58642189 2.90951823 15.8125 5.4375 C16.68326172 5.84548828 17.55402344 6.25347656 18.45117188 6.67382812 C24.87043171 9.74086342 24.87043171 9.74086342 26 12 C20.48911523 11.05928144 15.81202372 8.85982468 10.75 6.5625 C9.82703125 6.15451172 8.9040625 5.74652344 7.953125 5.32617188 C7.0765625 4.93107422 6.2 4.53597656 5.296875 4.12890625 C4.49604492 3.76869385 3.69521484 3.40848145 2.87011719 3.03735352 C1 2 1 2 0 0 Z " fill="#2B461D" transform="translate(1037,319)"/>
<path d="M0 0 C4.75481646 0.57634139 7.97048212 2.55068521 12 5 C8.35839192 6.21386936 7.66834531 5.6674695 4.3125 4.0625 C3.10013672 3.49208984 3.10013672 3.49208984 1.86328125 2.91015625 C1.24839844 2.60980469 0.63351562 2.30945313 0 2 C0 1.34 0 0.68 0 0 Z " fill="#304B21" transform="translate(1090,343)"/>
<path d="M0 0 C4.75481646 0.57634139 7.97048212 2.55068521 12 5 C8.35839192 6.21386936 7.66834531 5.6674695 4.3125 4.0625 C3.10013672 3.49208984 3.10013672 3.49208984 1.86328125 2.91015625 C1.24839844 2.60980469 0.63351562 2.30945313 0 2 C0 1.34 0 0.68 0 0 Z " fill="#2E491F" transform="translate(1077,337)"/>
<path d="M0 0 C4.3890815 0.51035831 7.33708062 1.52214277 11 4 C8 5 8 5 5.95703125 4.22265625 C5.24933594 3.83980469 4.54164062 3.45695312 3.8125 3.0625 C3.09707031 2.68222656 2.38164063 2.30195313 1.64453125 1.91015625 C1.10183594 1.60980469 0.55914063 1.30945313 0 1 C0 0.67 0 0.34 0 0 Z " fill="#2B461C" transform="translate(1065,332)"/>
<path d="M0 0 C0.99 0.495 0.99 0.495 2 1 C1.01 1.495 1.01 1.495 0 2 C0 1.34 0 0.68 0 0 Z " fill="#000000" transform="translate(1055,548)"/>
<path d="M0 0 C0.99 0.495 0.99 0.495 2 1 C1.01 1.495 1.01 1.495 0 2 C0 1.34 0 0.68 0 0 Z " fill="#FFFFFF" transform="translate(997,393)"/>
<path d="" fill="#000000" transform="translate(0,0)"/>
<path d="M0 0 C2 1 2 1 2 1 Z " fill="#FFFFFF" transform="translate(1051,444)"/>
<path d="" fill="#000000" transform="translate(0,0)"/>
<path d="" fill="#FFFFFF" transform="translate(0,0)"/>
<path d="" fill="#FFFFFF" transform="translate(0,0)"/>
</svg>
